<svg xmlns="http://www.w3.org/2000/svg" xmlns:xlink="http://www.w3.org/1999/xlink" width="382" zoomAndPan="magnify" viewBox="0 0 286.5 31.5" height="42" preserveAspectRatio="xMidYMid meet" version="1.0"><defs><clipPath id="c053237ed1"><path d="M 61.890625 0 L 74.441406 0 L 74.441406 10.269531 L 61.890625 10.269531 Z M 61.890625 0 " clip-rule="nonzero"/></clipPath></defs><g clip-path="url(#c053237ed1)"><path fill="#ffffff" d="M 74.441406 0.246094 C 73.605469 0.28125 72.769531 0.300781 71.933594 0.324219 L 70.679688 0.347656 C 70.261719 0.355469 69.84375 0.359375 69.425781 0.367188 L 68.175781 0.382812 L 66.921875 0.394531 L 64.570312 0.402344 L 64.5625 2.753906 L 64.550781 4.007812 L 64.542969 4.632812 L 64.535156 5.261719 C 64.527344 5.675781 64.523438 6.09375 64.515625 6.511719 L 64.492188 7.765625 C 64.46875 8.601562 64.449219 9.4375 64.414062 10.273438 C 64.378906 9.4375 64.359375 8.601562 64.339844 7.765625 L 64.3125 6.511719 C 64.304688 6.09375 64.300781 5.675781 64.292969 5.261719 L 64.285156 4.632812 L 64.277344 4.007812 L 64.269531 2.753906 L 64.257812 0.246094 L 64.257812 0.09375 L 64.414062 0.09375 L 66.921875 0.101562 L 68.175781 0.113281 L 68.800781 0.117188 L 69.425781 0.125 C 69.84375 0.132812 70.261719 0.136719 70.679688 0.144531 L 71.933594 0.171875 C 72.769531 0.191406 73.605469 0.214844 74.441406 0.246094 Z M 68.484375 -1.910156 C 68.542969 -1.910156 68.597656 -1.90625 68.65625 -1.902344 C 68.710938 -1.894531 68.765625 -1.886719 68.816406 -1.871094 C 68.871094 -1.859375 68.921875 -1.839844 68.976562 -1.820312 C 69.023438 -1.796875 69.074219 -1.773438 69.117188 -1.742188 C 69.164062 -1.714844 69.207031 -1.683594 69.246094 -1.652344 C 69.285156 -1.617188 69.324219 -1.582031 69.355469 -1.539062 L 69.378906 -1.511719 L 69.402344 -1.480469 C 69.417969 -1.460938 69.425781 -1.4375 69.441406 -1.417969 C 69.453125 -1.394531 69.460938 -1.375 69.472656 -1.351562 C 69.480469 -1.328125 69.492188 -1.308594 69.496094 -1.285156 C 69.554688 -1.101562 69.535156 -0.894531 69.449219 -0.734375 C 69.410156 -0.652344 69.351562 -0.582031 69.285156 -0.527344 C 69.269531 -0.515625 69.25 -0.503906 69.234375 -0.492188 C 69.214844 -0.480469 69.195312 -0.46875 69.175781 -0.460938 C 69.136719 -0.441406 69.097656 -0.429688 69.054688 -0.417969 C 68.96875 -0.398438 68.878906 -0.390625 68.792969 -0.390625 C 68.703125 -0.394531 68.621094 -0.40625 68.542969 -0.429688 C 68.390625 -0.472656 68.265625 -0.570312 68.21875 -0.707031 C 68.195312 -0.773438 68.183594 -0.84375 68.195312 -0.910156 C 68.207031 -0.976562 68.238281 -1.035156 68.28125 -1.082031 C 68.230469 -1.046875 68.179688 -0.988281 68.15625 -0.917969 C 68.132812 -0.847656 68.125 -0.769531 68.140625 -0.683594 C 68.148438 -0.644531 68.160156 -0.601562 68.179688 -0.5625 C 68.191406 -0.542969 68.203125 -0.523438 68.214844 -0.503906 C 68.230469 -0.484375 68.242188 -0.46875 68.257812 -0.449219 C 68.320312 -0.382812 68.398438 -0.324219 68.488281 -0.285156 C 68.578125 -0.246094 68.675781 -0.21875 68.777344 -0.207031 C 68.875 -0.191406 68.984375 -0.191406 69.09375 -0.207031 C 69.148438 -0.214844 69.207031 -0.226562 69.261719 -0.25 C 69.289062 -0.257812 69.316406 -0.269531 69.34375 -0.285156 C 69.371094 -0.296875 69.398438 -0.3125 69.425781 -0.328125 C 69.527344 -0.398438 69.617188 -0.492188 69.683594 -0.601562 C 69.75 -0.707031 69.796875 -0.832031 69.816406 -0.960938 C 69.835938 -1.09375 69.832031 -1.230469 69.800781 -1.367188 C 69.765625 -1.507812 69.699219 -1.632812 69.613281 -1.746094 C 69.574219 -1.800781 69.523438 -1.851562 69.472656 -1.902344 C 69.421875 -1.949219 69.363281 -1.996094 69.304688 -2.035156 C 69.246094 -2.074219 69.183594 -2.109375 69.117188 -2.136719 C 69.050781 -2.167969 68.984375 -2.195312 68.914062 -2.214844 C 68.84375 -2.234375 68.769531 -2.25 68.699219 -2.261719 C 68.625 -2.269531 68.550781 -2.273438 68.480469 -2.273438 C 68.332031 -2.273438 68.1875 -2.253906 68.042969 -2.21875 C 67.902344 -2.183594 67.761719 -2.136719 67.628906 -2.074219 C 67.363281 -1.953125 67.128906 -1.796875 66.914062 -1.632812 C 66.699219 -1.46875 66.507812 -1.296875 66.316406 -1.140625 C 66.125 -0.984375 65.941406 -0.839844 65.75 -0.71875 C 65.65625 -0.65625 65.558594 -0.605469 65.464844 -0.558594 C 65.367188 -0.511719 65.273438 -0.472656 65.179688 -0.449219 C 65.085938 -0.425781 64.988281 -0.414062 64.902344 -0.421875 C 64.8125 -0.429688 64.726562 -0.453125 64.65625 -0.492188 C 64.582031 -0.53125 64.519531 -0.585938 64.476562 -0.648438 C 64.4375 -0.710938 64.417969 -0.789062 64.414062 -0.863281 C 64.414062 -0.941406 64.433594 -1.011719 64.472656 -1.070312 C 64.492188 -1.097656 64.515625 -1.125 64.546875 -1.140625 C 64.574219 -1.160156 64.605469 -1.175781 64.636719 -1.183594 C 64.773438 -1.222656 64.921875 -1.175781 64.992188 -1.066406 C 64.96875 -1.125 64.921875 -1.183594 64.855469 -1.21875 C 64.789062 -1.253906 64.707031 -1.273438 64.625 -1.265625 C 64.582031 -1.257812 64.539062 -1.246094 64.496094 -1.226562 C 64.457031 -1.207031 64.417969 -1.179688 64.382812 -1.144531 C 64.316406 -1.074219 64.277344 -0.976562 64.265625 -0.875 C 64.253906 -0.773438 64.269531 -0.664062 64.316406 -0.558594 C 64.367188 -0.457031 64.449219 -0.371094 64.542969 -0.308594 C 64.640625 -0.242188 64.753906 -0.199219 64.871094 -0.179688 C 64.992188 -0.160156 65.113281 -0.164062 65.234375 -0.1875 C 65.355469 -0.207031 65.472656 -0.246094 65.582031 -0.289062 C 65.695312 -0.335938 65.804688 -0.390625 65.910156 -0.449219 C 66.125 -0.570312 66.332031 -0.71875 66.53125 -0.871094 C 66.734375 -1.027344 66.929688 -1.191406 67.136719 -1.339844 C 67.339844 -1.492188 67.554688 -1.632812 67.785156 -1.738281 C 68.011719 -1.839844 68.25 -1.902344 68.484375 -1.910156 Z M 68.757812 -1.328125 C 68.695312 -1.367188 68.59375 -1.367188 68.492188 -1.320312 C 68.394531 -1.273438 68.332031 -1.1875 68.324219 -1.117188 C 68.394531 -1.097656 68.488281 -1.109375 68.574219 -1.152344 C 68.664062 -1.195312 68.730469 -1.261719 68.757812 -1.328125 Z M 68.058594 -1.40625 C 68.027344 -1.351562 68.027344 -1.289062 68.058594 -1.234375 C 68.089844 -1.183594 68.148438 -1.15625 68.210938 -1.160156 C 68.246094 -1.210938 68.25 -1.277344 68.214844 -1.335938 C 68.183594 -1.390625 68.117188 -1.414062 68.058594 -1.40625 Z M 68.539062 -0.726562 C 68.566406 -0.785156 68.554688 -0.871094 68.496094 -0.933594 C 68.4375 -0.992188 68.351562 -1.011719 68.292969 -0.984375 C 68.289062 -0.917969 68.3125 -0.855469 68.359375 -0.804688 C 68.410156 -0.753906 68.472656 -0.726562 68.539062 -0.726562 Z M 65.195312 -0.667969 C 65.226562 -0.722656 65.230469 -0.804688 65.191406 -0.875 C 65.15625 -0.945312 65.089844 -0.988281 65.023438 -0.996094 C 64.992188 -0.9375 64.992188 -0.855469 65.027344 -0.789062 C 65.066406 -0.71875 65.128906 -0.671875 65.195312 -0.667969 Z M 65.378906 -1.144531 C 65.335938 -1.1875 65.28125 -1.210938 65.222656 -1.203125 C 65.167969 -1.195312 65.121094 -1.15625 65.089844 -1.101562 C 65.121094 -1.046875 65.183594 -1.011719 65.25 -1.019531 C 65.320312 -1.03125 65.367188 -1.082031 65.378906 -1.144531 Z M 64.789062 -0.75 C 64.851562 -0.75 64.910156 -0.777344 64.941406 -0.832031 C 64.972656 -0.886719 64.964844 -0.953125 64.929688 -1.003906 C 64.867188 -1.007812 64.808594 -0.976562 64.777344 -0.921875 C 64.75 -0.867188 64.753906 -0.804688 64.789062 -0.75 Z M 65.207031 -1.578125 C 65.136719 -1.558594 65.070312 -1.5 65.03125 -1.414062 C 64.992188 -1.332031 64.992188 -1.242188 65.023438 -1.179688 C 65.09375 -1.195312 65.160156 -1.253906 65.199219 -1.339844 C 65.238281 -1.425781 65.238281 -1.515625 65.207031 -1.578125 Z M 62.425781 3.613281 C 62.527344 3.386719 62.671875 3.171875 62.820312 2.964844 C 62.972656 2.761719 63.136719 2.566406 63.292969 2.363281 C 63.445312 2.164062 63.59375 1.957031 63.714844 1.742188 C 63.773438 1.636719 63.828125 1.527344 63.875 1.414062 C 63.917969 1.304688 63.957031 1.1875 63.976562 1.066406 C 63.996094 0.945312 64.003906 0.824219 63.984375 0.703125 C 63.964844 0.585938 63.921875 0.472656 63.855469 0.375 C 63.792969 0.28125 63.707031 0.199219 63.601562 0.148438 C 63.5 0.101562 63.390625 0.0859375 63.289062 0.0976562 C 63.1875 0.109375 63.089844 0.148438 63.019531 0.214844 C 62.984375 0.25 62.953125 0.285156 62.933594 0.328125 C 62.917969 0.371094 62.90625 0.414062 62.898438 0.457031 C 62.890625 0.539062 62.90625 0.621094 62.945312 0.6875 C 62.980469 0.753906 63.039062 0.800781 63.097656 0.824219 C 62.988281 0.753906 62.941406 0.605469 62.976562 0.46875 C 62.988281 0.4375 63.003906 0.40625 63.019531 0.378906 C 63.039062 0.347656 63.066406 0.328125 63.09375 0.304688 C 63.152344 0.265625 63.222656 0.246094 63.296875 0.246094 C 63.375 0.25 63.449219 0.269531 63.515625 0.308594 C 63.578125 0.351562 63.632812 0.414062 63.671875 0.488281 C 63.710938 0.558594 63.734375 0.644531 63.742188 0.734375 C 63.75 0.820312 63.738281 0.917969 63.714844 1.011719 C 63.691406 1.105469 63.652344 1.199219 63.605469 1.296875 C 63.558594 1.390625 63.507812 1.488281 63.445312 1.582031 C 63.324219 1.773438 63.179688 1.957031 63.023438 2.148438 C 62.867188 2.339844 62.695312 2.53125 62.53125 2.746094 C 62.367188 2.960938 62.207031 3.195312 62.089844 3.460938 C 62.027344 3.59375 61.980469 3.734375 61.945312 3.875 C 61.910156 4.019531 61.890625 4.164062 61.890625 4.3125 C 61.890625 4.382812 61.894531 4.457031 61.902344 4.53125 C 61.914062 4.601562 61.929688 4.675781 61.949219 4.746094 C 61.96875 4.816406 61.996094 4.882812 62.023438 4.949219 C 62.054688 5.015625 62.089844 5.078125 62.128906 5.136719 C 62.167969 5.195312 62.214844 5.25 62.261719 5.304688 C 62.308594 5.355469 62.363281 5.40625 62.417969 5.445312 C 62.53125 5.53125 62.65625 5.597656 62.796875 5.632812 C 62.933594 5.664062 63.070312 5.667969 63.199219 5.648438 C 63.332031 5.628906 63.453125 5.582031 63.5625 5.515625 C 63.671875 5.449219 63.765625 5.359375 63.835938 5.257812 C 63.851562 5.230469 63.867188 5.203125 63.878906 5.175781 C 63.894531 5.148438 63.90625 5.121094 63.914062 5.09375 C 63.933594 5.039062 63.949219 4.980469 63.957031 4.925781 C 63.972656 4.816406 63.96875 4.707031 63.957031 4.609375 C 63.945312 4.507812 63.917969 4.410156 63.878906 4.320312 C 63.835938 4.230469 63.78125 4.152344 63.710938 4.089844 C 63.695312 4.074219 63.675781 4.0625 63.660156 4.046875 C 63.640625 4.035156 63.621094 4.023438 63.601562 4.011719 C 63.558594 3.992188 63.519531 3.980469 63.476562 3.972656 C 63.394531 3.957031 63.316406 3.960938 63.246094 3.988281 C 63.175781 4.011719 63.117188 4.058594 63.082031 4.113281 C 63.128906 4.070312 63.1875 4.039062 63.253906 4.027344 C 63.320312 4.015625 63.390625 4.027344 63.457031 4.050781 C 63.589844 4.097656 63.691406 4.222656 63.734375 4.375 C 63.757812 4.453125 63.769531 4.535156 63.773438 4.625 C 63.773438 4.710938 63.765625 4.800781 63.746094 4.886719 C 63.734375 4.929688 63.71875 4.96875 63.703125 5.007812 C 63.691406 5.027344 63.683594 5.046875 63.671875 5.066406 C 63.660156 5.082031 63.648438 5.101562 63.632812 5.117188 C 63.582031 5.183594 63.511719 5.238281 63.429688 5.28125 C 63.269531 5.367188 63.0625 5.386719 62.878906 5.328125 C 62.855469 5.324219 62.835938 5.3125 62.8125 5.304688 C 62.789062 5.292969 62.769531 5.285156 62.746094 5.273438 C 62.726562 5.257812 62.703125 5.25 62.683594 5.234375 L 62.621094 5.1875 C 62.582031 5.15625 62.546875 5.117188 62.511719 5.078125 C 62.480469 5.039062 62.445312 4.996094 62.417969 4.949219 C 62.390625 4.90625 62.367188 4.855469 62.34375 4.804688 C 62.324219 4.753906 62.304688 4.703125 62.292969 4.648438 C 62.277344 4.597656 62.269531 4.542969 62.261719 4.488281 C 62.257812 4.429688 62.253906 4.371094 62.253906 4.316406 C 62.257812 4.085938 62.324219 3.84375 62.425781 3.613281 Z M 63.007812 4.40625 C 63.050781 4.320312 63.066406 4.226562 63.046875 4.15625 C 62.972656 4.164062 62.890625 4.226562 62.84375 4.328125 C 62.792969 4.425781 62.796875 4.53125 62.835938 4.59375 C 62.902344 4.5625 62.964844 4.496094 63.007812 4.40625 Z M 62.828125 4.050781 C 62.882812 4.082031 62.953125 4.078125 63.003906 4.042969 C 63.003906 3.980469 62.976562 3.921875 62.925781 3.890625 C 62.875 3.859375 62.8125 3.859375 62.753906 3.890625 C 62.746094 3.953125 62.773438 4.015625 62.828125 4.050781 Z M 63.359375 4.195312 C 63.308594 4.144531 63.242188 4.121094 63.175781 4.125 C 63.152344 4.1875 63.167969 4.269531 63.230469 4.328125 C 63.292969 4.386719 63.375 4.402344 63.4375 4.371094 C 63.4375 4.304688 63.410156 4.242188 63.359375 4.195312 Z M 63.375 0.859375 C 63.304688 0.824219 63.226562 0.824219 63.167969 0.855469 C 63.175781 0.921875 63.21875 0.988281 63.289062 1.027344 C 63.359375 1.0625 63.4375 1.0625 63.496094 1.027344 C 63.488281 0.960938 63.445312 0.898438 63.375 0.859375 Z M 63.140625 1.082031 C 63.152344 1.015625 63.117188 0.953125 63.0625 0.925781 C 63.003906 0.953125 62.96875 1 62.957031 1.058594 C 62.949219 1.113281 62.976562 1.167969 63.019531 1.214844 C 63.082031 1.203125 63.132812 1.152344 63.140625 1.082031 Z M 63.238281 0.613281 C 63.1875 0.640625 63.15625 0.699219 63.15625 0.761719 C 63.210938 0.796875 63.277344 0.804688 63.328125 0.773438 C 63.382812 0.746094 63.414062 0.6875 63.414062 0.625 C 63.359375 0.589844 63.292969 0.582031 63.238281 0.613281 Z M 62.824219 1.035156 C 62.910156 0.996094 62.96875 0.925781 62.984375 0.859375 C 62.921875 0.824219 62.832031 0.824219 62.746094 0.863281 C 62.660156 0.902344 62.601562 0.972656 62.585938 1.039062 C 62.648438 1.070312 62.738281 1.074219 62.824219 1.035156 Z M 63.152344 -1.015625 L 63.070312 -1.015625 C 62.847656 -1.015625 62.671875 -0.835938 62.671875 -0.617188 C 62.671875 -0.394531 62.847656 -0.21875 63.070312 -0.21875 L 63.949219 -0.21875 L 63.949219 -1.097656 C 63.949219 -1.316406 63.769531 -1.496094 63.550781 -1.496094 C 63.332031 -1.496094 63.152344 -1.316406 63.152344 -1.097656 Z M 65.949219 1.683594 C 66.023438 1.417969 65.945312 1.132812 65.75 0.9375 C 65.5625 0.746094 65.277344 0.667969 65.015625 0.734375 L 64.929688 0.757812 L 64.90625 0.84375 C 64.832031 1.109375 64.90625 1.394531 65.101562 1.589844 C 65.292969 1.78125 65.574219 1.859375 65.839844 1.792969 L 65.925781 1.769531 Z M 65.53125 1.15625 C 65.625 1.25 65.671875 1.378906 65.667969 1.503906 C 65.539062 1.511719 65.414062 1.464844 65.320312 1.371094 C 65.226562 1.277344 65.179688 1.148438 65.1875 1.019531 C 65.316406 1.015625 65.441406 1.0625 65.53125 1.15625 Z M 64.859375 3.070312 C 64.972656 2.945312 65.046875 2.710938 65.046875 2.445312 C 65.046875 2.175781 64.972656 1.941406 64.859375 1.816406 C 64.75 1.941406 64.675781 2.175781 64.675781 2.445312 C 64.675781 2.710938 64.75 2.945312 64.859375 3.070312 Z M 67.230469 0.710938 C 67.105469 0.601562 66.871094 0.527344 66.605469 0.527344 C 66.335938 0.527344 66.101562 0.601562 65.976562 0.710938 C 66.101562 0.824219 66.335938 0.898438 66.605469 0.898438 C 66.871094 0.898438 67.105469 0.824219 67.230469 0.710938 Z M 67.230469 0.710938 " fill-opacity="1" fill-rule="nonzero"/></g><path fill="#ffecc7" d="M 132.527344 19.878906 C 132.34375 19.675781 132.773438 20.136719 132.527344 19.878906 Z M 274.144531 26.691406 L 265.492188 26.496094 L 248.195312 26.121094 C 241.695312 26.015625 235.1875 25.90625 228.691406 25.820312 C 229.117188 25.714844 229.515625 25.605469 229.859375 25.511719 C 234.296875 24.234375 240.484375 20.878906 243.9375 24.800781 C 237.042969 17.144531 221.914062 31.148438 217.753906 21.929688 C 217.570312 23.816406 218.191406 24.996094 219.253906 25.703125 C 217.367188 25.679688 215.480469 25.648438 213.59375 25.640625 C 212.832031 25.628906 212.070312 25.628906 211.308594 25.617188 C 213.957031 23.816406 215.949219 20.757812 219.511719 21.082031 C 223.351562 21.433594 228.765625 24.234375 233.066406 21.929688 C 231.039062 22.691406 228.109375 21.53125 226.546875 20.0625 C 225.816406 19.375 224.863281 18.144531 223.617188 18.304688 C 222.394531 18.464844 222.597656 19.792969 223.082031 20.84375 C 216.261719 18.292969 212.027344 23.535156 208.53125 25.597656 C 207.105469 25.585938 205.6875 25.5625 204.261719 25.554688 L 204.199219 25.542969 C 204.210938 25.542969 204.210938 25.554688 204.21875 25.554688 C 203.0625 25.542969 201.914062 25.53125 200.757812 25.519531 C 201.765625 24.8125 202.621094 23.828125 203.265625 22.484375 C 203.941406 21.09375 206.441406 18.230469 207.953125 20.480469 C 206.738281 19.742188 203.910156 20.757812 203.898438 22.484375 C 203.886719 24.78125 206.570312 24.664062 207.941406 24.148438 C 209.753906 23.460938 210.964844 21.488281 211.941406 19.699219 C 212.882812 17.972656 214.417969 15.289062 214.472656 13.328125 C 211.769531 16.308594 208.328125 16.898438 204.789062 17.640625 C 203.449219 17.917969 201.945312 18.132812 201.035156 19.460938 C 200.347656 20.460938 200.402344 23.28125 202.117188 22.367188 C 201.484375 23.535156 200.242188 24.535156 198.847656 25.253906 C 198.558594 25.339844 198.269531 25.425781 198.011719 25.5 C 197.109375 25.488281 196.210938 25.476562 195.320312 25.476562 C 195.128906 25.414062 194.921875 25.339844 194.707031 25.242188 C 193.691406 24.78125 191.953125 22.796875 190.964844 23.355469 C 191.707031 23.964844 192.230469 24.855469 192.984375 25.46875 C 188.328125 25.433594 183.664062 25.414062 179.011719 25.371094 L 177.261719 25.371094 C 178.054688 24.382812 178.550781 22.96875 178.421875 21.949219 C 177.542969 23.417969 176.578125 24.75 175.203125 25.371094 L 167.269531 25.347656 C 165.167969 24.125 166.261719 20.085938 168.628906 19.152344 C 166.582031 19.589844 165.808594 20.824219 164.929688 22.742188 C 164.265625 24.179688 163.460938 24.878906 162.496094 25.339844 L 155.773438 25.316406 C 159.238281 24.835938 161.605469 22.390625 164.363281 19.828125 C 164.8125 19.453125 165.253906 19.117188 165.671875 18.828125 C 166.023438 18.59375 166.710938 18.261719 167.546875 17.929688 C 170.871094 16.929688 176.800781 16.375 175.355469 20.757812 C 175.289062 20.886719 175.363281 20.75 175.289062 20.886719 C 174.078125 17.542969 169.734375 17.703125 169.359375 20.8125 C 168.964844 24.082031 173.378906 24.234375 174.96875 22.828125 C 175.621094 22.25 176.082031 21.691406 176.40625 21.15625 C 177.574219 19.515625 177.175781 17.308594 175.289062 15.753906 C 173.59375 14.367188 171.6875 14.121094 169.851562 14.605469 C 175.492188 11.34375 180.488281 13.554688 185.273438 17.757812 C 184.683594 17.425781 183.707031 16.804688 182.171875 16.203125 C 181.15625 15.546875 180.191406 14.992188 177.316406 14.765625 L 181.851562 16.921875 C 180.019531 17.265625 178.570312 19.71875 180.867188 21.800781 C 185.574219 26.058594 190.300781 20.546875 196.222656 22.496094 C 193.003906 19.976562 192.941406 16.160156 190.195312 13.285156 C 189.722656 12.738281 188.855469 11.902344 188.46875 11.675781 C 186.828125 10.710938 185.070312 12.085938 184.875 13.929688 C 184.757812 15.097656 185.25 15.957031 185.914062 16.652344 C 181.15625 12.128906 175.074219 10.851562 170.636719 13.628906 C 171.546875 12.363281 172.082031 11.410156 173.070312 10.292969 C 173.070312 10.292969 175.148438 10.925781 177.144531 9.714844 C 180.5 7.667969 180.523438 4.019531 182.601562 0.773438 C 179.394531 2.550781 174.699219 0.0117188 172.480469 3.796875 C 170.667969 6.875 171.804688 10.367188 169.992188 13.46875 L 168.5 15.121094 C 168.160156 15.28125 167.816406 15.460938 167.492188 15.667969 C 166.777344 16.117188 166.109375 16.652344 165.46875 17.230469 C 164.78125 17.703125 163.226562 17.082031 162.820312 16.234375 C 162.316406 15.195312 163.355469 15.078125 165.800781 14.164062 C 167.238281 13.628906 167.675781 13.5 169.046875 10.144531 C 166.679688 11.472656 163.902344 9.359375 161.894531 12.148438 C 159.742188 15.140625 161.832031 17.296875 164.40625 18.003906 C 164.234375 18.28125 164 18.570312 163.742188 18.851562 C 163.503906 19.078125 163.269531 19.300781 163.03125 19.527344 C 162.101562 20.296875 160.929688 20.898438 159.914062 20.84375 C 159.503906 20.824219 159.171875 20.738281 158.871094 20.621094 C 158.882812 20.4375 158.882812 20.265625 158.863281 20.136719 C 158.777344 19.066406 158.378906 18.164062 157.863281 17.402344 C 157.339844 16.640625 156.707031 16.042969 156.03125 15.546875 C 154.679688 14.5625 153.210938 13.929688 151.71875 13.46875 C 148.730469 12.597656 145.640625 12.394531 142.648438 12.726562 C 145.628906 13.082031 148.566406 13.703125 151.226562 14.90625 C 152.546875 15.496094 153.8125 16.214844 154.820312 17.144531 C 155.3125 17.605469 155.753906 18.109375 156.0625 18.648438 C 156.214844 18.894531 156.320312 19.160156 156.394531 19.417969 C 155.589844 19.214844 154.539062 19.269531 152.878906 19.933594 C 154.101562 20.128906 154.777344 20.589844 155.078125 21.179688 C 154.828125 21.222656 154.574219 21.265625 154.316406 21.296875 C 152.898438 21.457031 151.34375 21.554688 149.769531 21.851562 C 148.191406 22.152344 146.585938 22.699219 145.105469 23.589844 C 144.214844 24.125 143.410156 24.8125 142.691406 25.585938 C 141.984375 24.78125 141.167969 24.074219 140.269531 23.527344 C 138.777344 22.625 137.160156 22.101562 135.582031 21.820312 C 134.007812 21.53125 132.449219 21.445312 131.035156 21.285156 C 130.800781 21.253906 130.574219 21.222656 130.347656 21.1875 C 130.640625 20.589844 131.324219 20.128906 132.546875 19.933594 C 130.789062 19.238281 129.707031 19.226562 128.890625 19.460938 C 129.128906 18.648438 129.726562 17.84375 130.476562 17.15625 C 131.484375 16.222656 132.75 15.503906 134.070312 14.914062 C 136.730469 13.714844 139.667969 13.09375 142.660156 12.738281 C 139.65625 12.40625 136.578125 12.621094 133.578125 13.488281 C 132.085938 13.949219 130.617188 14.582031 129.265625 15.570312 C 128.589844 16.0625 127.957031 16.664062 127.433594 17.4375 C 126.917969 18.1875 126.519531 19.128906 126.445312 20.148438 C 126.433594 20.296875 126.433594 20.492188 126.445312 20.675781 C 126.167969 20.769531 125.867188 20.84375 125.511719 20.855469 C 124.496094 20.910156 123.335938 20.308594 122.394531 19.539062 C 122.15625 19.3125 121.921875 19.085938 121.683594 18.863281 C 121.417969 18.582031 121.191406 18.292969 121.019531 18.015625 C 123.59375 17.316406 125.683594 15.152344 123.53125 12.160156 C 121.523438 9.371094 118.746094 11.484375 116.378906 10.15625 C 117.75 13.5 118.199219 13.640625 119.625 14.175781 C 122.070312 15.085938 123.113281 15.207031 122.605469 16.246094 C 122.199219 17.09375 120.65625 17.714844 119.957031 17.242188 C 119.316406 16.664062 118.652344 16.117188 117.933594 15.675781 C 117.601562 15.472656 117.265625 15.289062 116.925781 15.128906 L 115.433594 13.480469 C 113.621094 10.378906 114.757812 6.894531 112.945312 3.808594 C 110.726562 0.0195312 106.03125 2.574219 102.824219 0.78125 C 104.902344 4.019531 104.925781 7.675781 108.28125 9.726562 C 110.277344 10.949219 112.355469 10.304688 112.355469 10.304688 C 113.34375 11.421875 113.890625 12.386719 114.789062 13.640625 C 110.339844 10.863281 104.269531 12.136719 99.511719 16.664062 C 100.164062 15.964844 100.667969 15.109375 100.550781 13.941406 C 100.355469 12.09375 98.597656 10.722656 96.957031 11.6875 C 96.582031 11.914062 95.714844 12.75 95.230469 13.296875 C 92.476562 16.171875 92.410156 19.988281 89.207031 22.507812 C 95.136719 20.554688 99.863281 26.066406 104.5625 21.8125 C 106.855469 19.730469 105.398438 17.273438 103.574219 16.929688 L 108.109375 14.777344 C 105.234375 15.011719 104.269531 15.558594 103.253906 16.214844 C 101.71875 16.8125 100.742188 17.4375 100.152344 17.769531 C 104.9375 13.566406 109.933594 11.355469 115.574219 14.617188 C 113.738281 14.132812 111.832031 14.367188 110.136719 15.761719 C 108.25 17.308594 107.851562 19.527344 109.019531 21.167969 C 109.332031 21.703125 109.804688 22.261719 110.457031 22.839844 C 112.035156 24.246094 116.464844 24.09375 116.066406 20.824219 C 115.691406 17.703125 111.347656 17.542969 110.136719 20.898438 C 110.0625 20.757812 110.136719 20.898438 110.070312 20.769531 C 108.625 16.382812 114.542969 16.941406 117.878906 17.941406 C 118.726562 18.273438 119.402344 18.605469 119.753906 18.839844 C 120.171875 19.117188 120.613281 19.460938 121.0625 19.835938 C 123.820312 22.398438 126.1875 24.84375 129.652344 25.328125 L 122.929688 25.347656 C 121.964844 24.886719 121.160156 24.203125 120.496094 22.753906 C 119.617188 20.835938 118.84375 19.601562 116.785156 19.160156 C 119.15625 20.085938 120.25 24.125 118.148438 25.359375 L 110.210938 25.382812 C 108.851562 24.757812 107.875 23.429688 106.996094 21.960938 C 106.867188 22.988281 107.359375 24.394531 108.152344 25.382812 L 106.40625 25.382812 C 101.75 25.425781 97.097656 25.445312 92.433594 25.476562 C 93.195312 24.867188 93.71875 23.976562 94.449219 23.367188 C 93.460938 22.808594 91.726562 24.792969 90.707031 25.253906 C 90.492188 25.347656 90.289062 25.425781 90.09375 25.488281 C 89.195312 25.488281 88.304688 25.5 87.402344 25.511719 C 87.136719 25.445312 86.855469 25.359375 86.566406 25.261719 C 85.164062 24.535156 83.917969 23.546875 83.296875 22.378906 C 85.011719 23.28125 85.066406 20.46875 84.378906 19.472656 C 83.46875 18.144531 81.96875 17.929688 80.625 17.648438 C 77.089844 16.921875 73.644531 16.320312 70.945312 13.339844 C 70.996094 15.289062 72.53125 17.984375 73.476562 19.707031 C 74.460938 21.5 75.671875 23.484375 77.484375 24.160156 C 78.847656 24.671875 81.539062 24.792969 81.515625 22.496094 C 81.507812 20.769531 78.664062 19.75 77.464844 20.492188 C 78.964844 18.238281 81.472656 21.101562 82.148438 22.496094 C 82.792969 23.828125 83.640625 24.824219 84.660156 25.53125 C 83.5 25.542969 82.351562 25.554688 81.195312 25.5625 C 81.207031 25.5625 81.207031 25.554688 81.214844 25.554688 L 81.152344 25.5625 C 79.726562 25.574219 78.3125 25.585938 76.882812 25.605469 C 73.390625 23.546875 69.152344 18.304688 62.332031 20.855469 C 62.816406 19.804688 63.03125 18.476562 61.796875 18.316406 C 60.554688 18.152344 59.597656 19.386719 58.871094 20.074219 C 57.304688 21.554688 54.367188 22.710938 52.351562 21.9375 C 56.648438 24.246094 62.066406 21.445312 65.902344 21.09375 C 69.464844 20.757812 71.457031 23.828125 74.105469 25.628906 C 73.347656 25.640625 72.585938 25.640625 71.835938 25.648438 C 69.945312 25.671875 68.058594 25.691406 66.171875 25.714844 C 67.234375 25.007812 67.855469 23.828125 67.671875 21.9375 C 63.511719 31.160156 48.382812 17.15625 41.488281 24.8125 C 44.953125 20.886719 51.136719 24.246094 55.578125 25.519531 C 55.921875 25.617188 56.308594 25.722656 56.746094 25.832031 C 50.25 25.917969 43.738281 26.023438 37.242188 26.132812 L 19.945312 26.507812 L 11.292969 26.699219 L 2.585938 26.945312 L 11.238281 27.195312 L 19.890625 27.386719 L 37.1875 27.761719 C 48.726562 27.953125 60.253906 28.136719 71.792969 28.246094 C 83.328125 28.394531 94.855469 28.4375 106.394531 28.523438 L 137.585938 28.609375 L 133.480469 26.808594 C 132.535156 26.144531 131.484375 25.070312 130.820312 23.957031 C 132.300781 24.191406 133.695312 24.351562 135.003906 24.664062 C 136.363281 24.984375 137.640625 25.402344 138.722656 26.101562 C 139.808594 26.773438 140.6875 27.71875 141.339844 28.84375 L 142.574219 30.980469 L 143.894531 28.898438 C 144.601562 27.785156 145.511719 26.851562 146.605469 26.152344 C 147.699219 25.457031 148.976562 25.015625 150.328125 24.683594 C 151.65625 24.351562 153.0625 24.203125 154.5625 23.957031 C 153.898438 25.070312 152.847656 26.144531 151.902344 26.796875 L 147.796875 28.597656 L 178.988281 28.511719 C 190.527344 28.425781 202.054688 28.382812 213.59375 28.234375 C 225.128906 28.125 236.65625 27.945312 248.195312 27.75 L 265.492188 27.375 L 274.144531 27.183594 L 282.796875 26.9375 Z M 152.847656 19.878906 C 153.027344 19.675781 152.609375 20.136719 152.847656 19.878906 Z M 152.847656 19.878906 " fill-opacity="1" fill-rule="nonzero"/></svg>