<svg xmlns="http://www.w3.org/2000/svg" xmlns:xlink="http://www.w3.org/1999/xlink" width="250" zoomAndPan="magnify" viewBox="0 0 187.5 37.5" height="50" preserveAspectRatio="xMidYMid meet" version="1.0"><defs><g/></defs><path fill="#000000" d="M 94.8125 28.882812 C 94.941406 28.707031 95.394531 28.214844 95.503906 28.066406 C 95.886719 27.53125 96.191406 26.9375 96.453125 26.335938 C 97.25 24.507812 97.519531 22.480469 97.363281 20.5 C 97.007812 16.007812 93.617188 13.117188 89.671875 12.230469 C 85.738281 11.347656 81.261719 12.46875 78.71875 15.964844 C 77.007812 18.320312 76.71875 21.546875 77.546875 24.492188 C 78.371094 27.429688 80.304688 30.074219 82.996094 31.277344 C 86.203125 32.710938 89.957031 32.015625 92.945312 30.53125 C 93.109375 30.453125 93.171875 30.257812 93.09375 30.097656 C 93.011719 29.9375 92.816406 29.871094 92.652344 29.953125 C 89.832031 31.351562 86.292969 32.039062 83.265625 30.6875 C 80.742188 29.558594 78.949219 27.070312 78.175781 24.316406 C 77.402344 21.566406 77.648438 18.546875 79.25 16.34375 C 81.632812 13.0625 85.839844 12.035156 89.527344 12.863281 C 93.203125 13.6875 96.378906 16.367188 96.710938 20.550781 C 96.859375 22.425781 96.609375 24.347656 95.855469 26.082031 C 95.613281 26.640625 95.328125 27.191406 94.972656 27.6875 C 94.863281 27.835938 94.417969 28.324219 94.285156 28.496094 C 94.179688 28.640625 94.207031 28.84375 94.355469 28.949219 C 94.5 29.058594 94.703125 29.027344 94.8125 28.882812 Z M 94.8125 28.882812 " fill-opacity="1" fill-rule="evenodd"/><path fill="#000000" d="M 96.21875 30.066406 C 96.152344 30.09375 96.097656 30.144531 96.058594 30.210938 C 95.980469 30.359375 96.019531 30.460938 96.035156 30.5 C 96.085938 30.636719 96.183594 30.722656 96.367188 30.710938 C 96.398438 30.710938 96.480469 30.699219 96.574219 30.625 C 96.714844 30.515625 97.214844 29.988281 97.324219 29.875 C 97.605469 29.582031 97.871094 29.28125 98.085938 28.933594 C 98.921875 27.601562 99.167969 26.875 99.375 25.652344 C 99.984375 22.082031 99.800781 18.902344 98.253906 15.742188 C 95.355469 9.800781 87.410156 8.074219 81.472656 10.855469 C 80.261719 11.425781 79.191406 12.371094 78.207031 13.253906 C 74.882812 16.242188 74.234375 22.125 75.542969 26.144531 C 75.851562 27.089844 76.203125 27.925781 76.671875 28.789062 C 77.402344 30.140625 78.3125 31.40625 79.605469 32.304688 C 81.304688 33.484375 83.246094 33.996094 85.089844 34.328125 C 87.964844 34.84375 90.160156 34.523438 92.925781 33.253906 C 93.574219 32.957031 94.230469 32.613281 94.925781 32.035156 C 95.066406 31.921875 95.082031 31.714844 94.96875 31.578125 C 94.851562 31.441406 94.644531 31.421875 94.507812 31.539062 C 93.863281 32.074219 93.253906 32.390625 92.648438 32.667969 C 90.023438 33.871094 87.9375 34.179688 85.207031 33.691406 C 83.453125 33.375 81.597656 32.898438 79.980469 31.773438 C 78.769531 30.933594 77.929688 29.746094 77.246094 28.480469 C 76.800781 27.65625 76.460938 26.855469 76.164062 25.945312 C 74.925781 22.140625 75.5 16.5625 78.644531 13.738281 C 79.585938 12.894531 80.597656 11.984375 81.75 11.441406 C 87.378906 8.808594 94.917969 10.394531 97.667969 16.023438 C 99.148438 19.058594 99.316406 22.113281 98.730469 25.542969 C 98.539062 26.679688 98.308594 27.355469 97.53125 28.59375 C 97.339844 28.902344 97.101562 29.164062 96.851562 29.425781 C 96.769531 29.511719 96.359375 29.925781 96.21875 30.066406 Z M 96.644531 30.5 L 96.644531 30.503906 Z M 96.644531 30.5 " fill-opacity="1" fill-rule="evenodd"/><path fill="#000000" d="M 96.558594 13.894531 C 96.675781 13.867188 97.234375 13.6875 97.371094 13.664062 C 97.617188 13.625 97.863281 13.582031 98.117188 13.558594 C 98.859375 13.488281 99.613281 13.445312 100.359375 13.476562 C 102.710938 13.578125 105.113281 14.257812 107.089844 15.546875 C 110.214844 17.582031 110.410156 21.714844 109.460938 24.925781 C 109.082031 26.207031 108.753906 27.207031 107.519531 28.375 C 104.453125 31.269531 98.804688 32.148438 95.316406 29.488281 C 93.195312 27.875 91.617188 24.132812 91.871094 21.53125 C 92.007812 20.15625 92.347656 18.546875 92.972656 17.394531 C 93.390625 16.621094 93.738281 15.710938 94.304688 15.058594 C 94.421875 14.925781 94.40625 14.71875 94.269531 14.601562 C 94.132812 14.488281 93.925781 14.5 93.808594 14.636719 C 93.214844 15.324219 92.835938 16.273438 92.394531 17.085938 C 91.734375 18.308594 91.363281 20.011719 91.222656 21.46875 C 90.949219 24.257812 92.644531 28.269531 94.917969 30.003906 C 98.648438 32.84375 104.691406 31.941406 107.96875 28.84375 C 109.308594 27.574219 109.675781 26.5 110.089844 25.105469 C 111.113281 21.640625 110.820312 17.199219 107.449219 15.003906 C 105.375 13.652344 102.855469 12.933594 100.386719 12.828125 C 99.609375 12.796875 98.828125 12.839844 98.050781 12.910156 C 97.789062 12.9375 97.527344 12.980469 97.265625 13.027344 C 97.121094 13.046875 96.53125 13.234375 96.410156 13.261719 C 96.234375 13.304688 96.128906 13.480469 96.167969 13.652344 C 96.207031 13.828125 96.382812 13.9375 96.558594 13.894531 Z M 96.558594 13.894531 " fill-opacity="1" fill-rule="evenodd"/><path fill="#000000" d="M 92.789062 14.097656 C 92.902344 14.003906 92.9375 13.84375 92.871094 13.707031 C 92.824219 13.613281 92.75 13.558594 92.65625 13.535156 C 92.625 13.53125 92.453125 13.492188 92.300781 13.664062 C 92.144531 13.84375 91.417969 14.875 91.378906 14.941406 C 90.921875 15.75 90.496094 16.550781 90.132812 17.402344 C 88.9375 20.183594 88.734375 23 89.855469 25.8125 C 91.738281 30.539062 96.070312 34.078125 101.613281 33.839844 C 103.414062 33.765625 104.875 33.488281 106.421875 32.71875 C 113.84375 29.027344 115.199219 19.414062 109.46875 13.730469 C 106.507812 10.792969 103 10.300781 99.09375 10.816406 C 98.449219 10.902344 97.421875 11.070312 96.519531 11.371094 C 95.878906 11.585938 95.304688 11.871094 94.949219 12.222656 C 94.820312 12.347656 94.820312 12.554688 94.949219 12.679688 C 95.078125 12.808594 95.285156 12.808594 95.410156 12.679688 C 95.707031 12.386719 96.195312 12.164062 96.726562 11.984375 C 97.585938 11.699219 98.566406 11.539062 99.179688 11.457031 C 102.875 10.972656 106.207031 11.410156 109.007812 14.1875 C 114.421875 19.5625 113.144531 28.652344 106.128906 32.140625 C 104.667969 32.867188 103.285156 33.121094 101.585938 33.195312 C 96.335938 33.417969 92.246094 30.046875 90.464844 25.574219 C 89.40625 22.925781 89.609375 20.277344 90.730469 17.652344 C 91.089844 16.824219 91.503906 16.046875 91.949219 15.261719 C 91.980469 15.199219 92.707031 14.210938 92.789062 14.097656 Z M 92.464844 14.15625 L 92.46875 14.15625 L 92.460938 14.152344 Z M 92.460938 14.152344 C 92.386719 14.125 92.324219 14.070312 92.285156 13.996094 C 92.324219 14.074219 92.382812 14.128906 92.460938 14.152344 Z M 92.460938 14.152344 " fill-opacity="1" fill-rule="evenodd"/><path fill="#000000" d="M 89.488281 6.066406 C 89.472656 6.035156 89.421875 5.925781 89.378906 5.867188 C 89.285156 5.734375 89.15625 5.644531 88.988281 5.632812 C 88.511719 5.605469 87.824219 5.554688 87.363281 5.546875 C 86.558594 5.53125 85.640625 5.582031 84.804688 5.582031 C 84.710938 5.582031 84.621094 5.625 84.558594 5.695312 C 84.304688 5.984375 84 6.441406 83.789062 6.761719 C 83.582031 7.089844 83.464844 7.253906 83.261719 7.601562 C 83.207031 7.695312 83.070312 7.894531 83.050781 8.0625 C 83.027344 8.214844 83.066406 8.359375 83.1875 8.480469 C 83.46875 8.757812 83.742188 9.03125 83.980469 9.246094 C 84.152344 9.394531 84.359375 9.667969 84.578125 9.871094 C 84.777344 10.058594 84.992188 10.195312 85.199219 10.234375 C 85.882812 10.355469 86.910156 10.269531 87.605469 10.273438 C 87.960938 10.273438 88.496094 10.296875 88.835938 10.226562 C 89.011719 10.195312 89.179688 10.09375 89.339844 9.9375 C 89.511719 9.777344 89.683594 9.542969 89.890625 9.3125 C 90.09375 9.09375 90.375 8.753906 90.804688 8.195312 C 90.882812 8.09375 90.921875 7.933594 90.84375 7.742188 C 90.742188 7.488281 90.316406 7.054688 90.222656 6.9375 C 89.992188 6.636719 89.742188 6.347656 89.488281 6.066406 Z M 88.863281 6.277344 C 88.894531 6.335938 88.953125 6.445312 88.984375 6.476562 C 89.230469 6.753906 89.480469 7.035156 89.707031 7.328125 C 89.765625 7.410156 90.070312 7.78125 90.191406 7.925781 C 89.832031 8.390625 89.585938 8.683594 89.40625 8.878906 C 89.238281 9.0625 89.09375 9.253906 88.957031 9.402344 C 88.871094 9.492188 88.800781 9.574219 88.707031 9.59375 C 88.402344 9.652344 87.925781 9.621094 87.605469 9.621094 C 86.945312 9.621094 85.964844 9.710938 85.316406 9.59375 C 85.179688 9.570312 85.054688 9.4375 84.929688 9.300781 C 84.742188 9.109375 84.566406 8.894531 84.417969 8.761719 C 84.207031 8.574219 83.96875 8.339844 83.726562 8.097656 L 83.828125 7.925781 C 84.023438 7.589844 84.136719 7.425781 84.339844 7.113281 C 84.507812 6.851562 84.742188 6.496094 84.957031 6.230469 C 85.746094 6.226562 86.597656 6.179688 87.347656 6.195312 C 87.777344 6.203125 88.402344 6.246094 88.863281 6.277344 Z M 88.863281 6.277344 " fill-opacity="1" fill-rule="evenodd"/><path fill="#000000" d="M 85.070312 5.78125 C 85.007812 5.671875 84.878906 5.605469 84.746094 5.621094 C 84.566406 5.644531 84.441406 5.808594 84.464844 5.988281 C 84.46875 6.035156 84.496094 6.117188 84.566406 6.199219 C 84.628906 6.269531 84.773438 6.378906 84.808594 6.410156 C 85.046875 6.648438 85.277344 6.890625 85.503906 7.136719 C 86.363281 8.0625 87.507812 9.164062 88.40625 10.054688 C 88.53125 10.179688 88.738281 10.179688 88.867188 10.054688 C 88.996094 9.925781 88.996094 9.722656 88.867188 9.59375 C 87.976562 8.710938 86.839844 7.617188 85.984375 6.699219 C 85.75 6.445312 85.511719 6.195312 85.269531 5.953125 C 85.246094 5.929688 85.109375 5.816406 85.070312 5.78125 Z M 85.070312 5.78125 " fill-opacity="1" fill-rule="evenodd"/><path fill="#000000" d="M 85.359375 9.574219 C 85.238281 9.675781 85.207031 9.847656 85.285156 9.988281 C 85.304688 10.019531 85.539062 10.28125 85.789062 10.066406 C 85.816406 10.042969 85.945312 9.90625 85.953125 9.898438 C 86.039062 9.804688 86.121094 9.703125 86.203125 9.601562 C 86.441406 9.316406 86.660156 9.015625 86.90625 8.734375 C 87.6875 7.855469 88.417969 7.101562 89.230469 6.25 C 89.355469 6.121094 89.351562 5.914062 89.21875 5.789062 C 89.089844 5.667969 88.882812 5.675781 88.757812 5.804688 C 87.9375 6.660156 87.203125 7.417969 86.417969 8.308594 C 86.164062 8.589844 85.941406 8.898438 85.699219 9.191406 C 85.621094 9.28125 85.550781 9.375 85.46875 9.464844 Z M 85.835938 9.636719 L 85.839844 9.644531 L 85.835938 9.640625 Z M 85.742188 9.550781 C 85.773438 9.570312 85.804688 9.597656 85.828125 9.628906 C 85.804688 9.597656 85.777344 9.570312 85.742188 9.550781 Z M 85.726562 9.539062 L 85.734375 9.542969 Z M 85.699219 9.527344 L 85.707031 9.53125 L 85.703125 9.53125 Z M 85.691406 9.523438 C 85.648438 9.503906 85.582031 9.488281 85.5 9.507812 C 85.566406 9.492188 85.632812 9.5 85.691406 9.523438 Z M 85.488281 9.511719 L 85.488281 9.507812 Z M 85.488281 9.511719 " fill-opacity="1" fill-rule="evenodd"/><path fill="#000000" d="M 83.585938 8.394531 C 83.664062 8.386719 83.925781 8.339844 83.996094 8.328125 C 84.40625 8.269531 84.820312 8.214844 85.234375 8.195312 C 86.964844 8.113281 88.742188 8.167969 90.464844 8.167969 C 90.644531 8.167969 90.792969 8.023438 90.792969 7.847656 C 90.792969 7.667969 90.644531 7.523438 90.464844 7.523438 C 88.730469 7.523438 86.945312 7.464844 85.203125 7.550781 C 84.765625 7.570312 84.332031 7.625 83.898438 7.6875 C 83.832031 7.699219 83.574219 7.742188 83.5 7.753906 C 83.320312 7.777344 83.195312 7.9375 83.21875 8.117188 C 83.242188 8.292969 83.410156 8.421875 83.585938 8.394531 Z M 83.585938 8.394531 " fill-opacity="1" fill-rule="evenodd"/><path fill="#000000" d="M 91.121094 5.0625 C 91.253906 4.941406 91.644531 4.648438 91.75 4.566406 C 92.382812 4.082031 93.03125 3.601562 93.707031 3.152344 C 93.855469 3.050781 93.894531 2.851562 93.796875 2.703125 C 93.695312 2.554688 93.492188 2.515625 93.34375 2.613281 C 92.652344 3.070312 91.992188 3.558594 91.347656 4.054688 C 91.234375 4.144531 90.820312 4.453125 90.679688 4.582031 C 90.546875 4.703125 90.539062 4.910156 90.660156 5.042969 C 90.78125 5.171875 90.988281 5.183594 91.121094 5.0625 Z M 91.121094 5.0625 " fill-opacity="1" fill-rule="evenodd"/><path fill="#000000" d="M 87.753906 3.328125 C 87.824219 2.324219 87.875 1.464844 87.933594 0.339844 C 87.941406 0.160156 87.804688 0.0117188 87.625 0 C 87.445312 -0.0078125 87.289062 0.128906 87.28125 0.308594 C 87.222656 1.429688 87.171875 2.285156 87.101562 3.28125 C 87.089844 3.460938 87.226562 3.613281 87.40625 3.625 C 87.585938 3.640625 87.742188 3.503906 87.753906 3.328125 Z M 87.753906 3.328125 " fill-opacity="1" fill-rule="evenodd"/><path fill="#000000" d="M 80.742188 2.804688 C 80.871094 2.894531 80.9375 2.9375 81.03125 3.007812 C 81.207031 3.132812 81.367188 3.28125 81.527344 3.425781 C 82.0625 3.890625 82.558594 4.386719 83.039062 4.914062 C 83.160156 5.046875 83.367188 5.054688 83.503906 4.9375 C 83.636719 4.816406 83.644531 4.613281 83.523438 4.476562 C 83.027344 3.933594 82.511719 3.417969 81.960938 2.9375 C 81.78125 2.785156 81.609375 2.621094 81.417969 2.480469 C 81.316406 2.410156 81.25 2.367188 81.117188 2.273438 C 80.96875 2.171875 80.765625 2.207031 80.660156 2.355469 C 80.558594 2.5 80.59375 2.703125 80.742188 2.804688 Z M 80.742188 2.804688 " fill-opacity="1" fill-rule="evenodd"/><path fill="#000000" d="M 77.984375 7.847656 C 78.242188 7.839844 78.804688 7.835938 79.03125 7.84375 C 79.960938 7.878906 80.855469 7.902344 81.792969 7.957031 C 81.972656 7.96875 82.128906 7.832031 82.140625 7.652344 C 82.152344 7.472656 82.011719 7.320312 81.832031 7.3125 C 80.890625 7.253906 79.992188 7.234375 79.058594 7.195312 C 78.820312 7.1875 78.238281 7.195312 77.96875 7.199219 C 77.789062 7.203125 77.644531 7.351562 77.652344 7.53125 C 77.65625 7.710938 77.804688 7.851562 77.984375 7.847656 Z M 77.984375 7.847656 " fill-opacity="1" fill-rule="evenodd"/><path fill="#000000" d="M 92.238281 8.816406 C 93.617188 8.378906 94.992188 7.960938 96.347656 7.546875 C 96.519531 7.496094 96.617188 7.3125 96.5625 7.144531 C 96.511719 6.972656 96.328125 6.875 96.15625 6.929688 C 94.796875 7.34375 93.417969 7.761719 92.039062 8.195312 C 91.867188 8.25 91.773438 8.433594 91.828125 8.605469 C 91.882812 8.773438 92.066406 8.867188 92.238281 8.816406 Z M 92.238281 8.816406 " fill-opacity="1" fill-rule="evenodd"/><path fill="#000000" d="M 113.820312 29.660156 C 113.789062 29.671875 113.757812 29.6875 113.734375 29.707031 C 113.585938 29.808594 113.550781 30.011719 113.65625 30.15625 C 113.742188 30.28125 113.847656 30.320312 113.929688 30.332031 C 114.015625 30.34375 114.101562 30.328125 114.1875 30.273438 C 114.253906 30.226562 114.339844 30.125 114.402344 29.96875 C 114.464844 29.816406 114.519531 29.574219 114.59375 29.464844 C 114.90625 29 115.285156 28.570312 115.667969 28.15625 C 116.847656 26.878906 118.195312 25.652344 119.691406 24.75 C 123.90625 22.199219 130.355469 20.367188 135.3125 21.117188 C 137.890625 21.507812 140.453125 22.875 142.839844 23.847656 C 144.871094 24.675781 146.773438 25.777344 148.777344 26.660156 C 151.4375 27.832031 154.285156 28.484375 157.074219 29.28125 C 160.132812 30.15625 163.464844 31.027344 166.675781 31.222656 C 171.574219 31.515625 176.183594 30.238281 179.140625 25.058594 C 180.046875 23.464844 180.441406 21.078125 180.363281 19.265625 C 180.28125 17.414062 179.566406 15.246094 178.222656 13.914062 C 176.449219 12.15625 173.738281 11.058594 171.03125 10.914062 C 168.304688 10.769531 165.585938 11.597656 163.820312 13.65625 C 162.074219 15.695312 161.519531 18.515625 162.492188 20.578125 C 163.152344 21.972656 164.503906 23.042969 166.675781 23.296875 C 166.855469 23.316406 167.015625 23.191406 167.039062 23.011719 C 167.058594 22.832031 166.929688 22.671875 166.75 22.652344 C 164.855469 22.429688 163.660156 21.523438 163.082031 20.304688 C 162.207031 18.445312 162.746094 15.910156 164.316406 14.078125 C 165.953125 12.171875 168.472656 11.429688 170.996094 11.5625 C 173.542969 11.695312 176.09375 12.71875 177.757812 14.375 C 178.992188 15.597656 179.636719 17.59375 179.710938 19.292969 C 179.785156 20.996094 179.421875 23.242188 178.570312 24.738281 C 175.761719 29.660156 171.371094 30.855469 166.714844 30.574219 C 163.550781 30.382812 160.269531 29.519531 157.253906 28.660156 C 154.496094 27.871094 151.675781 27.230469 149.042969 26.066406 C 147.03125 25.179688 145.125 24.078125 143.085938 23.246094 C 140.65625 22.257812 138.039062 20.875 135.410156 20.476562 C 130.316406 19.703125 123.683594 21.574219 119.351562 24.195312 C 117.804688 25.132812 116.40625 26.394531 115.183594 27.71875 C 114.78125 28.15625 114.382812 28.613281 114.050781 29.105469 C 113.984375 29.199219 113.921875 29.363281 113.871094 29.523438 C 113.855469 29.566406 113.835938 29.617188 113.820312 29.660156 Z M 114.179688 29.769531 L 114.1875 29.785156 C 114.183594 29.777344 114.179688 29.777344 114.179688 29.769531 Z M 114.171875 29.761719 L 114.175781 29.765625 Z M 114.171875 29.761719 " fill-opacity="1" fill-rule="evenodd"/><path fill="#000000" d="M 124.9375 22.066406 C 124.933594 22.082031 124.933594 22.097656 124.933594 22.109375 C 124.933594 22.230469 124.996094 22.414062 125.121094 22.605469 C 125.328125 22.933594 125.695312 23.332031 125.828125 23.453125 C 126.96875 24.476562 128.269531 25.4375 129.960938 25.601562 C 130.441406 25.648438 131.15625 25.589844 131.671875 25.34375 C 132.089844 25.144531 132.378906 24.824219 132.417969 24.371094 C 132.480469 23.640625 131.859375 23.023438 131.207031 22.664062 C 130.035156 22.015625 128.691406 21.714844 127.320312 21.601562 C 126.761719 21.558594 126.203125 21.605469 125.652344 21.695312 C 125.609375 21.703125 125.203125 21.765625 125.117188 21.816406 C 124.984375 21.886719 124.945312 21.992188 124.9375 22.066406 Z M 125.726562 22.339844 L 125.757812 22.335938 C 126.257812 22.253906 126.761719 22.207031 127.269531 22.25 C 128.542969 22.351562 129.800781 22.628906 130.890625 23.230469 C 131.128906 23.363281 131.367188 23.53125 131.542969 23.738281 C 131.6875 23.90625 131.785156 24.097656 131.765625 24.316406 C 131.746094 24.53125 131.585938 24.664062 131.386719 24.761719 C 130.976562 24.957031 130.40625 24.992188 130.023438 24.957031 C 128.480469 24.808594 127.308594 23.90625 126.269531 22.972656 C 126.171875 22.886719 125.929688 22.625 125.753906 22.378906 C 125.742188 22.367188 125.734375 22.351562 125.726562 22.339844 Z M 125.726562 22.339844 " fill-opacity="1" fill-rule="evenodd"/><path fill="#000000" d="M 121.582031 23.273438 C 121.597656 23.28125 121.609375 23.285156 121.625 23.285156 C 121.746094 23.308594 121.9375 23.28125 122.152344 23.195312 C 122.511719 23.050781 122.972656 22.765625 123.117188 22.65625 C 124.339844 21.726562 125.523438 20.628906 125.992188 19.011719 C 126.125 18.550781 126.199219 17.839844 126.046875 17.292969 C 125.921875 16.851562 125.65625 16.511719 125.21875 16.390625 C 124.503906 16.195312 123.78125 16.691406 123.308594 17.261719 C 122.453125 18.289062 121.910156 19.546875 121.550781 20.863281 C 121.40625 21.402344 121.351562 21.957031 121.34375 22.511719 C 121.34375 22.554688 121.332031 22.960938 121.367188 23.054688 C 121.414062 23.199219 121.511719 23.253906 121.582031 23.273438 Z M 121.996094 22.554688 L 121.996094 22.523438 C 122.007812 22.023438 122.050781 21.519531 122.183594 21.03125 C 122.515625 19.808594 123.015625 18.632812 123.8125 17.671875 C 123.984375 17.464844 124.195312 17.261719 124.429688 17.128906 C 124.625 17.019531 124.832031 16.957031 125.046875 17.015625 C 125.253906 17.074219 125.355469 17.253906 125.417969 17.46875 C 125.539062 17.902344 125.46875 18.464844 125.363281 18.832031 C 124.9375 20.308594 123.835938 21.292969 122.722656 22.140625 C 122.617188 22.21875 122.3125 22.410156 122.039062 22.535156 C 122.023438 22.542969 122.011719 22.546875 121.996094 22.554688 Z M 121.996094 22.554688 " fill-opacity="1" fill-rule="evenodd"/><path fill="#000000" d="M 135.300781 21.0625 C 135.289062 21.074219 135.28125 21.089844 135.273438 21.101562 C 135.214844 21.207031 135.175781 21.402344 135.191406 21.636719 C 135.214844 22.027344 135.347656 22.5625 135.410156 22.742188 C 135.929688 24.21875 136.632812 25.726562 138.085938 26.75 C 138.496094 27.039062 139.175781 27.363281 139.761719 27.417969 C 140.242188 27.464844 140.667969 27.335938 140.929688 26.964844 C 141.117188 26.703125 141.183594 26.394531 141.15625 26.074219 C 141.121094 25.660156 140.925781 25.21875 140.695312 24.851562 C 139.953125 23.679688 138.882812 22.714844 137.691406 21.902344 C 137.207031 21.570312 136.671875 21.320312 136.125 21.113281 C 136.085938 21.097656 135.6875 20.941406 135.589844 20.9375 C 135.433594 20.929688 135.34375 21.007812 135.300781 21.0625 Z M 135.851562 21.703125 L 135.890625 21.71875 C 136.390625 21.910156 136.875 22.132812 137.320312 22.4375 C 138.4375 23.199219 139.445312 24.097656 140.140625 25.199219 C 140.292969 25.433594 140.425781 25.710938 140.484375 25.980469 C 140.527344 26.199219 140.523438 26.417969 140.398438 26.59375 C 140.269531 26.769531 140.054688 26.796875 139.824219 26.773438 C 139.34375 26.730469 138.800781 26.457031 138.464844 26.222656 C 137.128906 25.28125 136.507812 23.882812 136.027344 22.527344 C 135.980469 22.398438 135.894531 22.042969 135.855469 21.738281 C 135.855469 21.726562 135.851562 21.714844 135.851562 21.703125 Z M 135.851562 21.703125 " fill-opacity="1" fill-rule="evenodd"/><path fill="#000000" d="M 131.429688 20.578125 C 131.4375 20.59375 131.449219 20.605469 131.460938 20.617188 C 131.546875 20.703125 131.726562 20.796875 131.960938 20.855469 C 132.355469 20.957031 132.933594 21.003906 133.128906 21 C 134.773438 20.980469 136.496094 20.800781 137.949219 19.746094 C 138.359375 19.445312 138.886719 18.90625 139.109375 18.359375 C 139.296875 17.914062 139.292969 17.46875 138.996094 17.101562 C 138.785156 16.839844 138.5 16.695312 138.167969 16.628906 C 137.757812 16.546875 137.277344 16.597656 136.851562 16.652344 C 135.507812 16.832031 134.207031 17.347656 132.9375 18.429688 C 132.492188 18.8125 132.089844 19.359375 131.726562 19.804688 C 131.699219 19.839844 131.425781 20.171875 131.390625 20.265625 C 131.335938 20.414062 131.386719 20.519531 131.429688 20.578125 Z M 132.207031 20.246094 L 132.234375 20.214844 C 132.574219 19.792969 132.945312 19.277344 133.363281 18.921875 C 134.523438 17.929688 135.710938 17.460938 136.9375 17.296875 C 137.242188 17.253906 137.574219 17.210938 137.882812 17.242188 C 138.117188 17.261719 138.339844 17.328125 138.484375 17.507812 C 138.628906 17.683594 138.59375 17.898438 138.507812 18.113281 C 138.324219 18.550781 137.894531 18.980469 137.5625 19.222656 C 136.226562 20.195312 134.632812 20.335938 133.121094 20.355469 C 132.976562 20.355469 132.59375 20.324219 132.269531 20.261719 C 132.25 20.257812 132.230469 20.253906 132.207031 20.246094 Z M 132.207031 20.246094 " fill-opacity="1" fill-rule="evenodd"/><path fill="#000000" d="M 141.503906 22.789062 C 141.511719 22.804688 141.519531 22.816406 141.53125 22.828125 C 141.597656 22.929688 141.761719 23.050781 141.984375 23.144531 C 142.359375 23.308594 142.921875 23.445312 143.117188 23.472656 C 144.742188 23.707031 146.472656 23.800781 148.074219 22.988281 C 148.527344 22.753906 149.132812 22.300781 149.441406 21.800781 C 149.695312 21.390625 149.761719 20.949219 149.527344 20.539062 C 149.363281 20.25 149.101562 20.058594 148.785156 19.941406 C 148.394531 19.796875 147.914062 19.769531 147.484375 19.761719 C 146.128906 19.726562 144.761719 20.03125 143.335938 20.902344 C 142.832031 21.210938 142.351562 21.683594 141.917969 22.070312 C 141.886719 22.097656 141.5625 22.382812 141.515625 22.472656 C 141.441406 22.609375 141.472656 22.722656 141.503906 22.789062 Z M 142.324219 22.582031 L 142.355469 22.554688 C 142.757812 22.191406 143.207031 21.742188 143.675781 21.453125 C 144.980469 20.65625 146.230469 20.378906 147.464844 20.40625 C 147.773438 20.414062 148.109375 20.425781 148.40625 20.503906 C 148.636719 20.5625 148.84375 20.660156 148.960938 20.859375 C 149.074219 21.054688 149.007812 21.265625 148.886719 21.460938 C 148.636719 21.867188 148.144531 22.222656 147.773438 22.410156 C 146.300781 23.160156 144.707031 23.046875 143.210938 22.832031 C 143.066406 22.808594 142.695312 22.71875 142.386719 22.605469 C 142.363281 22.597656 142.34375 22.589844 142.324219 22.582031 Z M 142.324219 22.582031 " fill-opacity="1" fill-rule="evenodd"/><path fill="#000000" d="M 146.007812 25.289062 C 145.996094 25.296875 145.988281 25.3125 145.976562 25.324219 C 145.90625 25.421875 145.84375 25.613281 145.824219 25.851562 C 145.796875 26.257812 145.851562 26.832031 145.890625 27.023438 C 146.195312 28.621094 146.679688 30.273438 147.980469 31.507812 C 148.351562 31.859375 148.980469 32.277344 149.5625 32.398438 C 150.035156 32.503906 150.476562 32.421875 150.789062 32.066406 C 151.011719 31.816406 151.105469 31.507812 151.113281 31.175781 C 151.121094 30.761719 150.988281 30.300781 150.855469 29.894531 C 150.441406 28.613281 149.703125 27.429688 148.40625 26.382812 C 147.949219 26.011719 147.335938 25.71875 146.828125 25.4375 C 146.789062 25.417969 146.414062 25.210938 146.3125 25.191406 C 146.15625 25.167969 146.058594 25.234375 146.007812 25.289062 Z M 146.472656 25.988281 L 146.511719 26.007812 C 146.988281 26.265625 147.5625 26.539062 147.992188 26.882812 C 149.179688 27.84375 149.855469 28.921875 150.234375 30.089844 C 150.328125 30.378906 150.429688 30.699219 150.453125 31.003906 C 150.472656 31.238281 150.449219 31.464844 150.296875 31.640625 C 150.144531 31.808594 149.925781 31.816406 149.699219 31.765625 C 149.230469 31.667969 148.730469 31.320312 148.429688 31.039062 C 147.234375 29.902344 146.8125 28.375 146.53125 26.902344 C 146.503906 26.757812 146.464844 26.378906 146.472656 26.054688 C 146.472656 26.03125 146.472656 26.011719 146.472656 25.988281 Z M 146.472656 25.988281 " fill-opacity="1" fill-rule="evenodd"/><path fill="#000000" d="M 150.085938 26.738281 C 150.09375 26.757812 150.105469 26.773438 150.113281 26.789062 C 150.175781 26.882812 150.332031 26.996094 150.550781 27.078125 C 150.894531 27.203125 151.417969 27.292969 151.601562 27.3125 C 153.109375 27.4375 154.734375 27.433594 156.335938 26.648438 C 156.789062 26.425781 157.402344 26.003906 157.746094 25.558594 C 158.042969 25.167969 158.140625 24.757812 157.957031 24.394531 C 157.820312 24.128906 157.578125 23.957031 157.269531 23.863281 C 156.910156 23.753906 156.453125 23.753906 156.046875 23.765625 C 154.769531 23.804688 153.445312 24.132812 152.003906 24.964844 C 151.5 25.253906 150.992188 25.695312 150.542969 26.050781 C 150.511719 26.074219 150.179688 26.332031 150.125 26.414062 C 150.027344 26.550781 150.058594 26.675781 150.085938 26.738281 Z M 150.980469 26.53125 C 151.398438 26.199219 151.867188 25.792969 152.335938 25.523438 C 153.664062 24.757812 154.886719 24.449219 156.066406 24.414062 C 156.351562 24.40625 156.667969 24.398438 156.941406 24.449219 C 157.128906 24.484375 157.296875 24.539062 157.371094 24.6875 C 157.449219 24.839844 157.351562 25 157.226562 25.164062 C 156.941406 25.539062 156.421875 25.882812 156.046875 26.066406 C 154.5625 26.796875 153.054688 26.78125 151.65625 26.664062 C 151.535156 26.652344 151.242188 26.605469 150.980469 26.53125 Z M 150.980469 26.53125 " fill-opacity="1" fill-rule="evenodd"/><path fill="#000000" d="M 153.800781 28.222656 C 153.789062 28.234375 153.777344 28.246094 153.769531 28.261719 C 153.710938 28.34375 153.65625 28.515625 153.640625 28.730469 C 153.613281 29.085938 153.65625 29.589844 153.683594 29.757812 C 153.914062 31.179688 154.28125 32.65625 155.289062 33.824219 C 155.582031 34.164062 156.078125 34.574219 156.539062 34.726562 C 156.945312 34.863281 157.328125 34.8125 157.601562 34.492188 C 157.78125 34.28125 157.863281 34.011719 157.871094 33.710938 C 157.882812 33.347656 157.78125 32.9375 157.679688 32.574219 C 157.363281 31.425781 156.792969 30.339844 155.789062 29.332031 C 155.433594 28.976562 154.957031 28.671875 154.558594 28.394531 C 154.539062 28.378906 154.375 28.253906 154.277344 28.195312 C 154.21875 28.160156 154.167969 28.140625 154.136719 28.132812 C 153.96875 28.085938 153.859375 28.160156 153.800781 28.222656 Z M 154.285156 28.996094 C 154.628906 29.234375 155.023438 29.488281 155.324219 29.789062 C 156.242188 30.707031 156.761719 31.695312 157.050781 32.742188 C 157.121094 33 157.199219 33.289062 157.214844 33.554688 C 157.230469 33.75 157.21875 33.941406 157.105469 34.074219 C 157.011719 34.179688 156.878906 34.160156 156.746094 34.113281 C 156.390625 33.996094 156.011719 33.664062 155.785156 33.402344 C 154.859375 32.328125 154.539062 30.960938 154.328125 29.65625 C 154.308594 29.542969 154.285156 29.257812 154.285156 28.996094 Z M 154.285156 28.996094 " fill-opacity="1" fill-rule="evenodd"/><path fill="#000000" d="M 162.34375 20.03125 C 162.324219 20.035156 162.304688 20.039062 162.285156 20.042969 C 162.191406 20.074219 162.050781 20.175781 161.921875 20.347656 C 161.730469 20.597656 161.511719 21.007812 161.449219 21.15625 C 160.921875 22.367188 160.460938 23.707031 160.585938 25.226562 C 160.625 25.738281 160.820312 26.507812 161.144531 26.882812 C 161.351562 27.125 161.605469 27.234375 161.894531 27.179688 C 162.140625 27.128906 162.351562 26.96875 162.515625 26.726562 C 162.699219 26.460938 162.828125 26.082031 162.9375 25.746094 C 163.277344 24.683594 163.410156 23.507812 163.207031 22.113281 C 163.136719 21.625 162.957031 21.09375 162.820312 20.636719 C 162.8125 20.601562 162.710938 20.253906 162.664062 20.183594 C 162.5625 20.027344 162.417969 20.023438 162.34375 20.03125 Z M 162.265625 21.046875 C 162.378906 21.421875 162.507812 21.824219 162.5625 22.207031 C 162.746094 23.492188 162.625 24.574219 162.316406 25.546875 C 162.238281 25.789062 162.15625 26.050781 162.039062 26.261719 C 161.964844 26.394531 161.890625 26.519531 161.769531 26.542969 C 161.734375 26.546875 161.710938 26.53125 161.683594 26.507812 C 161.636719 26.464844 161.597656 26.410156 161.558594 26.347656 C 161.367188 26.023438 161.265625 25.519531 161.234375 25.171875 C 161.121094 23.769531 161.5625 22.53125 162.050781 21.410156 C 162.078125 21.347656 162.167969 21.199219 162.265625 21.046875 Z M 162.265625 21.046875 " fill-opacity="1" fill-rule="evenodd"/><path fill="#000000" d="M 162.074219 30.246094 C 162.0625 30.261719 162.046875 30.277344 162.035156 30.292969 C 161.976562 30.378906 161.933594 30.546875 161.964844 30.761719 C 162 31.046875 162.136719 31.449219 162.195312 31.585938 C 162.683594 32.683594 163.316406 33.828125 164.550781 34.726562 C 164.957031 35.023438 165.667969 35.394531 166.191406 35.4375 C 166.511719 35.464844 166.777344 35.378906 166.953125 35.183594 C 167.125 34.984375 167.171875 34.738281 167.121094 34.457031 C 167.0625 34.167969 166.882812 33.839844 166.710938 33.546875 C 166.191406 32.664062 165.421875 31.828125 164.222656 31.054688 C 163.800781 30.789062 163.269531 30.558594 162.820312 30.347656 C 162.789062 30.332031 162.460938 30.175781 162.378906 30.160156 C 162.21875 30.128906 162.121094 30.203125 162.074219 30.246094 Z M 162.683594 31 C 163.074219 31.179688 163.511719 31.375 163.867188 31.601562 C 164.964844 32.304688 165.671875 33.066406 166.148438 33.875 C 166.265625 34.070312 166.390625 34.285156 166.453125 34.484375 C 166.484375 34.589844 166.523438 34.683594 166.460938 34.753906 C 166.429688 34.789062 166.378906 34.792969 166.324219 34.796875 C 166.25 34.796875 166.167969 34.785156 166.082031 34.765625 C 165.683594 34.675781 165.222656 34.414062 164.9375 34.203125 C 163.808594 33.382812 163.238281 32.328125 162.792969 31.324219 C 162.765625 31.261719 162.722656 31.136719 162.683594 31 Z M 162.683594 31 " fill-opacity="1" fill-rule="evenodd"/><path fill="#000000" d="M 165.378906 30.703125 C 165.390625 30.722656 165.40625 30.738281 165.421875 30.75 C 165.496094 30.820312 165.664062 30.894531 165.886719 30.90625 C 166.203125 30.921875 166.667969 30.863281 166.828125 30.828125 C 168.132812 30.546875 169.515625 30.125 170.746094 29.042969 C 171.15625 28.683594 171.703125 28.035156 171.855469 27.507812 C 171.949219 27.183594 171.910156 26.898438 171.730469 26.683594 C 171.554688 26.472656 171.300781 26.382812 171 26.382812 C 170.671875 26.382812 170.28125 26.5 169.933594 26.617188 C 168.855469 26.980469 167.785156 27.601562 166.699219 28.671875 C 166.316406 29.050781 165.960938 29.550781 165.640625 29.964844 C 165.613281 29.996094 165.378906 30.296875 165.34375 30.378906 C 165.277344 30.539062 165.339844 30.652344 165.378906 30.703125 Z M 166.238281 30.25 C 166.523438 29.878906 166.832031 29.457031 167.160156 29.132812 C 168.164062 28.140625 169.148438 27.566406 170.140625 27.230469 C 170.382812 27.152344 170.644531 27.066406 170.882812 27.039062 C 171.023438 27.023438 171.152344 27.007812 171.226562 27.097656 C 171.261719 27.136719 171.257812 27.191406 171.246094 27.246094 C 171.234375 27.324219 171.207031 27.40625 171.167969 27.492188 C 170.984375 27.878906 170.601562 28.304688 170.3125 28.558594 C 169.175781 29.554688 167.894531 29.933594 166.6875 30.195312 C 166.605469 30.214844 166.425781 30.238281 166.238281 30.25 Z M 166.238281 30.25 " fill-opacity="1" fill-rule="evenodd"/><path fill="#000000" d="M 166.332031 12.308594 C 166.3125 12.300781 166.296875 12.292969 166.277344 12.289062 C 166.207031 12.269531 166.082031 12.253906 165.953125 12.367188 C 165.882812 12.429688 165.671875 12.785156 165.648438 12.820312 C 165.359375 13.304688 164.992188 13.851562 164.769531 14.382812 C 164.136719 15.894531 163.980469 17.226562 164.109375 18.472656 C 164.148438 18.875 164.207031 19.320312 164.363281 19.65625 C 164.496094 19.945312 164.695312 20.160156 164.976562 20.257812 C 165.359375 20.394531 165.757812 20.246094 166.101562 19.90625 C 166.5 19.515625 166.832031 18.863281 166.996094 18.394531 C 167.566406 16.734375 167.359375 15.148438 167.039062 13.691406 C 167 13.515625 166.839844 13.019531 166.671875 12.699219 C 166.566406 12.492188 166.429688 12.355469 166.332031 12.308594 Z M 166.167969 13.226562 C 166.265625 13.457031 166.378906 13.734375 166.402344 13.832031 C 166.695312 15.179688 166.90625 16.648438 166.375 18.1875 C 166.242188 18.574219 165.972656 19.121094 165.640625 19.449219 C 165.496094 19.589844 165.355469 19.703125 165.195312 19.648438 C 165.039062 19.59375 164.964844 19.433594 164.90625 19.257812 C 164.820312 19 164.789062 18.6875 164.757812 18.40625 C 164.640625 17.257812 164.789062 16.027344 165.371094 14.632812 C 165.570312 14.15625 165.898438 13.664062 166.167969 13.226562 Z M 166.167969 13.226562 " fill-opacity="1" fill-rule="evenodd"/><path fill="#000000" d="M 163.78125 14.394531 C 163.773438 14.378906 163.761719 14.367188 163.753906 14.355469 C 163.675781 14.261719 163.5 14.152344 163.257812 14.082031 C 162.855469 13.953125 162.261719 13.871094 162.054688 13.859375 C 160.335938 13.769531 158.503906 13.828125 156.828125 14.757812 C 156.351562 15.019531 155.726562 15.507812 155.410156 16.019531 C 155.144531 16.449219 155.085938 16.898438 155.351562 17.285156 C 155.535156 17.554688 155.816406 17.722656 156.15625 17.808594 C 156.570312 17.917969 157.078125 17.898438 157.53125 17.875 C 158.960938 17.789062 160.402344 17.378906 161.890625 16.410156 C 162.414062 16.066406 162.917969 15.5625 163.367188 15.152344 C 163.398438 15.121094 163.734375 14.820312 163.78125 14.730469 C 163.863281 14.582031 163.820312 14.460938 163.78125 14.394531 Z M 162.9375 14.664062 L 162.925781 14.675781 C 162.5 15.0625 162.027344 15.542969 161.535156 15.867188 C 160.152344 16.765625 158.820312 17.148438 157.492188 17.226562 C 157.167969 17.246094 156.804688 17.265625 156.488281 17.214844 C 156.242188 17.179688 156.019531 17.109375 155.894531 16.921875 C 155.773438 16.75 155.847656 16.550781 155.964844 16.359375 C 156.230469 15.9375 156.753906 15.539062 157.144531 15.324219 C 158.707031 14.457031 160.417969 14.421875 162.019531 14.507812 C 162.175781 14.515625 162.578125 14.570312 162.910156 14.65625 Z M 162.9375 14.664062 " fill-opacity="1" fill-rule="evenodd"/><path fill="#000000" d="M 166.347656 22.808594 C 166.339844 22.824219 166.335938 22.839844 166.332031 22.851562 C 166.3125 22.933594 166.308594 23.0625 166.4375 23.179688 C 166.460938 23.199219 166.503906 23.230469 166.5625 23.261719 C 166.667969 23.3125 166.859375 23.382812 166.882812 23.394531 C 167.328125 23.574219 167.839844 23.8125 168.328125 23.917969 C 169.714844 24.21875 170.929688 24.105469 172.066406 23.742188 C 172.421875 23.625 172.824219 23.484375 173.121094 23.277344 C 173.367188 23.105469 173.550781 22.890625 173.632812 22.621094 C 173.753906 22.21875 173.589844 21.871094 173.261719 21.601562 C 172.886719 21.292969 172.269531 21.101562 171.832031 21.039062 C 170.308594 20.828125 168.871094 21.328125 167.558594 21.910156 C 167.398438 21.980469 166.957031 22.222656 166.675781 22.441406 C 166.5 22.574219 166.386719 22.710938 166.347656 22.808594 Z M 167.238281 22.835938 C 167.460938 22.691406 167.71875 22.550781 167.824219 22.503906 C 169.03125 21.96875 170.34375 21.484375 171.738281 21.679688 C 172.078125 21.726562 172.554688 21.867188 172.84375 22.101562 C 172.957031 22.195312 173.046875 22.300781 173.003906 22.4375 C 172.953125 22.609375 172.800781 22.722656 172.628906 22.820312 C 172.398438 22.949219 172.117188 23.042969 171.863281 23.125 C 170.832031 23.457031 169.726562 23.558594 168.46875 23.285156 C 168.054688 23.195312 167.625 23 167.238281 22.835938 Z M 167.238281 22.835938 " fill-opacity="1" fill-rule="evenodd"/><path fill="#000000" d="M 171.453125 30.855469 C 171.449219 30.875 171.449219 30.898438 171.453125 30.917969 C 171.46875 31.015625 171.558594 31.167969 171.726562 31.316406 C 171.957031 31.519531 172.351562 31.765625 172.492188 31.839844 C 173.671875 32.449219 174.996094 33.011719 176.601562 33.03125 C 177.136719 33.035156 177.960938 32.925781 178.398438 32.65625 C 178.679688 32.484375 178.832031 32.246094 178.820312 31.96875 C 178.8125 31.71875 178.671875 31.492188 178.4375 31.308594 C 178.1875 31.109375 177.8125 30.949219 177.476562 30.8125 C 176.425781 30.398438 175.222656 30.164062 173.734375 30.230469 C 173.210938 30.253906 172.632812 30.375 172.132812 30.460938 C 172.09375 30.46875 171.726562 30.53125 171.648438 30.566406 C 171.476562 30.644531 171.453125 30.785156 171.453125 30.855469 Z M 172.488281 31.054688 C 172.902344 30.980469 173.351562 30.894531 173.765625 30.878906 C 175.140625 30.816406 176.257812 31.03125 177.234375 31.417969 C 177.472656 31.511719 177.730469 31.613281 177.933594 31.746094 C 177.996094 31.785156 178.054688 31.828125 178.101562 31.875 C 178.136719 31.914062 178.164062 31.949219 178.167969 31.992188 C 178.167969 32.027344 178.140625 32.042969 178.113281 32.066406 C 178.058594 32.109375 177.988281 32.144531 177.914062 32.175781 C 177.535156 32.332031 176.984375 32.386719 176.605469 32.382812 C 175.117188 32.367188 173.890625 31.832031 172.796875 31.265625 C 172.738281 31.234375 172.617188 31.152344 172.488281 31.054688 Z M 172.488281 31.054688 " fill-opacity="1" fill-rule="evenodd"/><path fill="#000000" d="M 177.632812 26.324219 C 177.628906 26.34375 177.628906 26.359375 177.628906 26.375 C 177.625 26.480469 177.660156 26.628906 177.859375 26.699219 C 177.890625 26.707031 177.945312 26.71875 178.019531 26.722656 C 178.144531 26.726562 178.375 26.710938 178.402344 26.707031 C 178.9375 26.6875 179.554688 26.691406 180.117188 26.578125 C 181.703125 26.25 183.007812 25.601562 184.160156 24.742188 C 184.519531 24.472656 184.917969 24.164062 185.195312 23.835938 C 185.414062 23.570312 185.554688 23.289062 185.578125 23.007812 C 185.617188 22.523438 185.335938 22.242188 184.882812 22.117188 C 184.402344 21.984375 183.679688 22.066406 183.183594 22.203125 C 181.472656 22.675781 180.019531 23.804688 178.71875 24.960938 C 178.5625 25.097656 178.140625 25.527344 177.886719 25.859375 C 177.738281 26.046875 177.648438 26.222656 177.632812 26.324219 Z M 178.566406 26.054688 C 178.785156 25.800781 179.042969 25.539062 179.152344 25.441406 C 180.382812 24.355469 181.746094 23.273438 183.359375 22.828125 C 183.632812 22.753906 183.984375 22.695312 184.308594 22.695312 C 184.476562 22.699219 184.636719 22.714844 184.769531 22.761719 C 184.859375 22.792969 184.9375 22.847656 184.925781 22.953125 C 184.914062 23.117188 184.816406 23.269531 184.691406 23.421875 C 184.445312 23.714844 184.089844 23.984375 183.769531 24.222656 C 182.6875 25.027344 181.46875 25.636719 179.984375 25.941406 C 179.523438 26.039062 179.019531 26.042969 178.566406 26.054688 Z M 178.566406 26.054688 " fill-opacity="1" fill-rule="evenodd"/><path fill="#000000" d="M 176.492188 28.066406 C 176.503906 28.0625 176.515625 28.054688 176.527344 28.050781 C 176.636719 27.988281 176.777344 27.847656 176.90625 27.652344 C 177.148438 27.304688 177.398438 26.78125 177.464844 26.597656 C 178.035156 25.0625 178.472656 23.421875 177.957031 21.898438 C 177.808594 21.449219 177.457031 20.855469 176.988281 20.546875 C 176.625 20.308594 176.195312 20.222656 175.734375 20.4375 C 175.011719 20.773438 174.742188 21.605469 174.574219 22.3125 C 174.265625 23.601562 174.304688 24.90625 174.914062 26.273438 C 175.128906 26.753906 175.523438 27.21875 175.832031 27.636719 C 175.847656 27.652344 175.941406 27.789062 176.015625 27.886719 C 176.082031 27.964844 176.148438 28.019531 176.1875 28.042969 C 176.3125 28.113281 176.417969 28.097656 176.492188 28.066406 Z M 176.378906 27.277344 L 176.359375 27.25 C 176.074219 26.871094 175.710938 26.449219 175.511719 26.007812 C 174.964844 24.785156 174.933594 23.617188 175.210938 22.464844 C 175.277344 22.175781 175.355469 21.859375 175.496094 21.582031 C 175.609375 21.34375 175.765625 21.140625 176.011719 21.023438 C 176.308594 20.886719 176.566406 21.011719 176.78125 21.207031 C 177.046875 21.457031 177.242188 21.820312 177.339844 22.101562 C 177.808594 23.488281 177.371094 24.976562 176.851562 26.375 C 176.800781 26.507812 176.632812 26.863281 176.457031 27.15625 C 176.429688 27.199219 176.402344 27.238281 176.378906 27.277344 Z M 176.378906 27.277344 " fill-opacity="1" fill-rule="evenodd"/><path fill="#000000" d="M 180.140625 19.667969 C 180.15625 19.667969 180.171875 19.671875 180.191406 19.671875 C 180.304688 19.671875 180.488281 19.609375 180.691406 19.488281 C 181.023438 19.28125 181.445312 18.917969 181.578125 18.78125 C 182.6875 17.640625 183.753906 16.335938 184.101562 14.640625 C 184.203125 14.15625 184.230469 13.429688 184.050781 12.914062 C 183.898438 12.472656 183.605469 12.164062 183.15625 12.121094 C 182.847656 12.09375 182.558594 12.191406 182.285156 12.375 C 181.957031 12.605469 181.660156 12.964844 181.40625 13.296875 C 180.59375 14.335938 180.019531 15.570312 179.8125 17.164062 C 179.742188 17.722656 179.800781 18.363281 179.824219 18.914062 C 179.824219 18.953125 179.84375 19.367188 179.875 19.457031 C 179.941406 19.613281 180.0625 19.65625 180.140625 19.667969 Z M 180.476562 18.851562 C 180.453125 18.34375 180.394531 17.761719 180.460938 17.246094 C 180.648438 15.785156 181.179688 14.648438 181.921875 13.691406 C 182.105469 13.457031 182.308594 13.199219 182.535156 13.003906 C 182.707031 12.859375 182.890625 12.746094 183.09375 12.769531 C 183.28125 12.785156 183.371094 12.941406 183.433594 13.121094 C 183.578125 13.539062 183.542969 14.121094 183.464844 14.511719 C 183.140625 16.082031 182.132812 17.273438 181.109375 18.328125 C 181.011719 18.429688 180.734375 18.671875 180.476562 18.851562 Z M 180.476562 18.851562 " fill-opacity="1" fill-rule="evenodd"/><path fill="#000000" d="M 176.652344 13.214844 C 176.667969 13.207031 176.683594 13.195312 176.695312 13.183594 C 176.777344 13.113281 176.871094 12.945312 176.933594 12.726562 C 177.027344 12.371094 177.078125 11.84375 177.082031 11.660156 C 177.097656 10.148438 176.980469 8.539062 176.117188 7.070312 C 175.871094 6.648438 175.421875 6.097656 174.964844 5.816406 C 174.5625 5.574219 174.15625 5.53125 173.8125 5.769531 C 173.570312 5.941406 173.429688 6.199219 173.363281 6.507812 C 173.285156 6.875 173.316406 7.324219 173.355469 7.726562 C 173.480469 8.984375 173.886719 10.246094 174.78125 11.554688 C 175.09375 12.015625 175.550781 12.457031 175.921875 12.851562 C 175.949219 12.878906 176.226562 13.175781 176.308594 13.222656 C 176.464844 13.304688 176.585938 13.253906 176.652344 13.214844 Z M 176.347656 12.351562 C 176.007812 11.992188 175.601562 11.601562 175.320312 11.191406 C 174.5 9.988281 174.121094 8.820312 174.007812 7.664062 C 173.976562 7.378906 173.949219 7.0625 173.980469 6.785156 C 174.003906 6.585938 174.042969 6.402344 174.1875 6.300781 C 174.320312 6.207031 174.472656 6.277344 174.625 6.371094 C 174.996094 6.597656 175.351562 7.054688 175.554688 7.394531 C 176.351562 8.757812 176.441406 10.253906 176.425781 11.65625 C 176.425781 11.777344 176.398438 12.078125 176.347656 12.351562 Z M 176.347656 12.351562 " fill-opacity="1" fill-rule="evenodd"/><path fill="#000000" d="M 169.683594 10.878906 C 169.6875 10.859375 169.6875 10.84375 169.691406 10.824219 C 169.695312 10.722656 169.644531 10.546875 169.53125 10.359375 C 169.355469 10.054688 169.035156 9.660156 168.914062 9.535156 C 167.910156 8.492188 166.753906 7.472656 165.210938 7.042969 C 164.769531 6.921875 164.105469 6.84375 163.621094 6.957031 C 163.1875 7.0625 162.886719 7.308594 162.828125 7.714844 C 162.789062 7.988281 162.871094 8.257812 163.039062 8.515625 C 163.234375 8.816406 163.554688 9.105469 163.851562 9.347656 C 164.773438 10.125 165.886719 10.714844 167.335938 11.011719 C 167.847656 11.117188 168.433594 11.117188 168.9375 11.136719 C 168.976562 11.140625 169.363281 11.15625 169.445312 11.128906 C 169.617188 11.078125 169.667969 10.957031 169.683594 10.878906 Z M 168.839844 10.484375 C 168.398438 10.46875 167.902344 10.46875 167.46875 10.378906 C 166.140625 10.105469 165.121094 9.566406 164.269531 8.855469 C 164.0625 8.679688 163.835938 8.484375 163.667969 8.277344 C 163.546875 8.125 163.453125 7.972656 163.476562 7.808594 C 163.496094 7.671875 163.625 7.621094 163.773438 7.589844 C 164.15625 7.496094 164.683594 7.570312 165.035156 7.667969 C 166.457031 8.066406 167.511719 9.019531 168.441406 9.984375 C 168.519531 10.0625 168.695312 10.273438 168.839844 10.484375 Z M 168.839844 10.484375 " fill-opacity="1" fill-rule="evenodd"/><path fill="#000000" d="M 179.191406 15.554688 C 179.191406 15.539062 179.1875 15.523438 179.183594 15.507812 C 179.152344 15.410156 179.050781 15.269531 178.890625 15.132812 C 178.636719 14.917969 178.230469 14.671875 178.085938 14.601562 C 176.878906 14.007812 175.550781 13.484375 174.082031 13.625 C 173.65625 13.667969 173.054688 13.824219 172.671875 14.097656 C 172.332031 14.339844 172.152344 14.664062 172.234375 15.050781 C 172.289062 15.3125 172.449219 15.527344 172.675781 15.703125 C 172.945312 15.910156 173.320312 16.058594 173.652344 16.179688 C 174.707031 16.5625 175.855469 16.714844 177.203125 16.484375 C 177.679688 16.40625 178.183594 16.203125 178.625 16.050781 C 178.660156 16.039062 179 15.917969 179.066406 15.867188 C 179.199219 15.761719 179.203125 15.632812 179.191406 15.554688 Z M 178.253906 15.492188 C 177.882812 15.625 177.480469 15.78125 177.09375 15.847656 C 175.875 16.054688 174.832031 15.917969 173.878906 15.570312 C 173.644531 15.488281 173.390625 15.390625 173.179688 15.261719 C 173.03125 15.171875 172.90625 15.066406 172.871094 14.917969 C 172.84375 14.789062 172.941406 14.703125 173.050781 14.625 C 173.347656 14.414062 173.816406 14.304688 174.144531 14.273438 C 175.484375 14.144531 176.695312 14.640625 177.796875 15.183594 C 177.871094 15.21875 178.074219 15.363281 178.253906 15.492188 Z M 178.253906 15.492188 " fill-opacity="1" fill-rule="evenodd"/><path fill="#000000" d="M 73.199219 29.957031 C 73.183594 29.914062 73.164062 29.863281 73.148438 29.820312 C 73.097656 29.660156 73.03125 29.496094 72.96875 29.402344 C 72.636719 28.910156 72.238281 28.453125 71.832031 28.015625 C 70.613281 26.691406 69.214844 25.429688 67.667969 24.492188 C 63.335938 21.871094 56.703125 20 51.605469 20.773438 C 48.980469 21.171875 46.363281 22.554688 43.929688 23.542969 C 41.894531 24.375 39.988281 25.476562 37.976562 26.363281 C 35.34375 27.523438 32.523438 28.167969 29.761719 28.957031 C 26.75 29.816406 23.464844 30.679688 20.304688 30.871094 C 15.648438 31.152344 11.257812 29.957031 8.449219 25.035156 C 7.59375 23.539062 7.234375 21.292969 7.308594 19.589844 C 7.382812 17.890625 8.023438 15.894531 9.257812 14.671875 C 10.925781 13.015625 13.476562 11.992188 16.019531 11.859375 C 18.542969 11.726562 21.066406 12.46875 22.699219 14.375 C 24.273438 16.207031 24.8125 18.742188 23.933594 20.601562 C 23.359375 21.820312 22.164062 22.726562 20.269531 22.949219 C 20.089844 22.96875 19.960938 23.128906 19.980469 23.308594 C 20.003906 23.488281 20.164062 23.613281 20.34375 23.59375 C 22.515625 23.339844 23.867188 22.269531 24.527344 20.875 C 25.5 18.8125 24.945312 15.992188 23.199219 13.953125 C 21.433594 11.894531 18.714844 11.066406 15.984375 11.210938 C 13.28125 11.355469 10.570312 12.453125 8.796875 14.210938 C 7.453125 15.542969 6.738281 17.710938 6.65625 19.5625 C 6.578125 21.375 6.972656 23.761719 7.878906 25.355469 C 10.835938 30.535156 15.445312 31.8125 20.34375 31.515625 C 23.550781 31.324219 26.886719 30.453125 29.945312 29.578125 C 32.734375 28.78125 35.578125 28.128906 38.242188 26.957031 C 40.246094 26.070312 42.148438 24.972656 44.179688 24.144531 C 46.566406 23.171875 49.128906 21.804688 51.707031 21.414062 C 56.664062 20.664062 63.113281 22.496094 67.328125 25.046875 C 68.820312 25.949219 70.171875 27.171875 71.351562 28.453125 C 71.734375 28.867188 72.109375 29.296875 72.425781 29.761719 C 72.5 29.871094 72.554688 30.113281 72.613281 30.265625 C 72.675781 30.421875 72.761719 30.523438 72.832031 30.570312 C 72.914062 30.625 73 30.640625 73.089844 30.628906 C 73.171875 30.617188 73.273438 30.578125 73.363281 30.453125 C 73.46875 30.308594 73.433594 30.105469 73.285156 30.003906 C 73.257812 29.984375 73.230469 29.96875 73.199219 29.957031 Z M 72.839844 30.066406 C 72.835938 30.070312 72.832031 30.074219 72.832031 30.078125 Z M 72.847656 30.058594 L 72.84375 30.0625 Z M 72.847656 30.058594 " fill-opacity="1" fill-rule="evenodd"/><path fill="#000000" d="M 62.082031 22.40625 C 62.082031 22.390625 62.082031 22.378906 62.082031 22.363281 C 62.070312 22.289062 62.035156 22.183594 61.902344 22.113281 C 61.816406 22.0625 61.410156 22 61.367188 21.992188 C 60.816406 21.902344 60.257812 21.855469 59.695312 21.898438 C 58.328125 22.011719 56.984375 22.3125 55.808594 22.960938 C 55.160156 23.320312 54.535156 23.9375 54.601562 24.667969 C 54.640625 25.121094 54.929688 25.441406 55.347656 25.640625 C 55.863281 25.886719 56.578125 25.945312 57.058594 25.898438 C 58.746094 25.734375 60.050781 24.773438 61.1875 23.75 C 61.324219 23.628906 61.691406 23.230469 61.898438 22.902344 C 62.019531 22.710938 62.082031 22.527344 62.082031 22.40625 Z M 61.292969 22.636719 C 61.28125 22.648438 61.273438 22.660156 61.265625 22.675781 C 61.089844 22.921875 60.847656 23.179688 60.75 23.269531 C 59.710938 24.203125 58.535156 25.101562 56.996094 25.25 C 56.613281 25.289062 56.042969 25.253906 55.632812 25.058594 C 55.433594 24.960938 55.269531 24.828125 55.25 24.613281 C 55.234375 24.394531 55.332031 24.203125 55.472656 24.035156 C 55.648438 23.828125 55.890625 23.660156 56.125 23.527344 C 57.21875 22.925781 58.476562 22.648438 59.75 22.546875 C 60.257812 22.503906 60.761719 22.550781 61.261719 22.632812 Z M 61.292969 22.636719 " fill-opacity="1" fill-rule="evenodd"/><path fill="#000000" d="M 65.394531 23.582031 C 65.40625 23.582031 65.421875 23.578125 65.4375 23.570312 C 65.507812 23.550781 65.605469 23.496094 65.652344 23.351562 C 65.683594 23.257812 65.675781 22.851562 65.675781 22.808594 C 65.664062 22.253906 65.613281 21.699219 65.464844 21.160156 C 65.109375 19.84375 64.566406 18.585938 63.710938 17.558594 C 63.238281 16.988281 62.515625 16.492188 61.800781 16.6875 C 61.363281 16.804688 61.097656 17.148438 60.972656 17.589844 C 60.820312 18.136719 60.894531 18.847656 61.027344 19.308594 C 61.492188 20.925781 62.679688 22.023438 63.898438 22.953125 C 64.046875 23.0625 64.507812 23.347656 64.867188 23.492188 C 65.082031 23.578125 65.273438 23.605469 65.394531 23.582031 Z M 65.023438 22.851562 C 65.007812 22.84375 64.996094 22.839844 64.980469 22.832031 C 64.707031 22.707031 64.402344 22.515625 64.296875 22.4375 C 63.183594 21.589844 62.082031 20.605469 61.65625 19.128906 C 61.550781 18.761719 61.480469 18.199219 61.601562 17.765625 C 61.660156 17.550781 61.765625 17.371094 61.972656 17.3125 C 62.1875 17.253906 62.394531 17.316406 62.585938 17.425781 C 62.824219 17.558594 63.035156 17.761719 63.207031 17.96875 C 64 18.929688 64.5 20.105469 64.835938 21.328125 C 64.96875 21.816406 65.011719 22.320312 65.023438 22.820312 Z M 65.023438 22.851562 " fill-opacity="1" fill-rule="evenodd"/><path fill="#000000" d="M 51.746094 21.398438 C 51.734375 21.386719 51.726562 21.371094 51.71875 21.359375 C 51.671875 21.304688 51.585938 21.226562 51.429688 21.234375 C 51.328125 21.238281 50.929688 21.394531 50.890625 21.410156 C 50.34375 21.617188 49.8125 21.867188 49.328125 22.199219 C 48.136719 23.011719 47.066406 23.976562 46.324219 25.148438 C 46.089844 25.515625 45.898438 25.957031 45.863281 26.371094 C 45.835938 26.691406 45.898438 27 46.085938 27.261719 C 46.347656 27.632812 46.777344 27.761719 47.257812 27.714844 C 47.84375 27.660156 48.519531 27.335938 48.933594 27.046875 C 50.386719 26.023438 51.085938 24.515625 51.605469 23.039062 C 51.671875 22.859375 51.804688 22.320312 51.828125 21.933594 C 51.84375 21.699219 51.804688 21.503906 51.746094 21.398438 Z M 51.164062 22 C 51.164062 22.011719 51.164062 22.023438 51.160156 22.035156 C 51.125 22.339844 51.039062 22.695312 50.992188 22.824219 C 50.511719 24.179688 49.890625 25.578125 48.554688 26.515625 C 48.21875 26.753906 47.671875 27.027344 47.195312 27.070312 C 46.964844 27.09375 46.746094 27.066406 46.621094 26.890625 C 46.496094 26.710938 46.492188 26.496094 46.535156 26.277344 C 46.59375 26.007812 46.726562 25.730469 46.878906 25.496094 C 47.574219 24.394531 48.582031 23.496094 49.695312 22.734375 C 50.140625 22.429688 50.628906 22.207031 51.128906 22.015625 Z M 51.164062 22 " fill-opacity="1" fill-rule="evenodd"/><path fill="#000000" d="M 55.558594 20.914062 C 55.566406 20.902344 55.578125 20.890625 55.585938 20.875 C 55.632812 20.816406 55.679688 20.710938 55.628906 20.5625 C 55.59375 20.46875 55.320312 20.132812 55.292969 20.101562 C 54.925781 19.652344 54.527344 19.109375 54.082031 18.726562 C 52.8125 17.640625 51.507812 17.128906 50.164062 16.949219 C 49.742188 16.890625 49.257812 16.84375 48.851562 16.925781 C 48.519531 16.992188 48.234375 17.136719 48.023438 17.398438 C 47.726562 17.765625 47.722656 18.210938 47.90625 18.65625 C 48.132812 19.199219 48.65625 19.742188 49.070312 20.042969 C 50.523438 21.097656 52.246094 21.277344 53.886719 21.296875 C 54.085938 21.300781 54.660156 21.253906 55.058594 21.152344 C 55.292969 21.09375 55.472656 21 55.558594 20.914062 Z M 54.8125 20.542969 C 54.789062 20.550781 54.769531 20.554688 54.746094 20.558594 C 54.425781 20.621094 54.042969 20.652344 53.894531 20.648438 C 52.386719 20.632812 50.792969 20.488281 49.457031 19.519531 C 49.125 19.277344 48.691406 18.847656 48.511719 18.410156 C 48.421875 18.195312 48.390625 17.980469 48.535156 17.804688 C 48.679688 17.621094 48.898438 17.558594 49.136719 17.539062 C 49.441406 17.507812 49.777344 17.550781 50.078125 17.589844 C 51.308594 17.753906 52.496094 18.226562 53.65625 19.21875 C 54.074219 19.574219 54.445312 20.089844 54.785156 20.511719 Z M 54.8125 20.542969 " fill-opacity="1" fill-rule="evenodd"/><path fill="#000000" d="M 45.488281 23.125 C 45.496094 23.113281 45.507812 23.101562 45.511719 23.085938 C 45.546875 23.019531 45.578125 22.90625 45.503906 22.769531 C 45.453125 22.679688 45.132812 22.394531 45.101562 22.367188 C 44.667969 21.980469 44.1875 21.507812 43.683594 21.199219 C 42.257812 20.328125 40.890625 20.023438 39.535156 20.058594 C 39.105469 20.066406 38.621094 20.09375 38.230469 20.238281 C 37.917969 20.355469 37.65625 20.546875 37.492188 20.835938 C 37.253906 21.246094 37.324219 21.6875 37.578125 22.097656 C 37.886719 22.597656 38.488281 23.050781 38.945312 23.28125 C 40.546875 24.097656 42.277344 24.003906 43.902344 23.765625 C 44.097656 23.742188 44.660156 23.605469 45.035156 23.441406 C 45.257812 23.347656 45.417969 23.226562 45.488281 23.125 Z M 44.695312 22.878906 C 44.671875 22.886719 44.652344 22.894531 44.632812 22.902344 C 44.324219 23.015625 43.949219 23.105469 43.804688 23.128906 C 42.3125 23.34375 40.71875 23.453125 39.242188 22.707031 C 38.875 22.519531 38.382812 22.164062 38.132812 21.757812 C 38.011719 21.5625 37.945312 21.351562 38.058594 21.15625 C 38.171875 20.957031 38.382812 20.859375 38.613281 20.800781 C 38.910156 20.722656 39.246094 20.710938 39.550781 20.703125 C 40.789062 20.675781 42.039062 20.953125 43.339844 21.75 C 43.808594 22.039062 44.257812 22.488281 44.664062 22.851562 Z M 44.695312 22.878906 " fill-opacity="1" fill-rule="evenodd"/><path fill="#000000" d="M 41.042969 25.621094 C 41.03125 25.609375 41.023438 25.59375 41.011719 25.585938 C 40.957031 25.53125 40.863281 25.464844 40.707031 25.488281 C 40.605469 25.507812 40.226562 25.714844 40.191406 25.734375 C 39.683594 26.015625 39.070312 26.308594 38.613281 26.679688 C 37.316406 27.726562 36.574219 28.910156 36.164062 30.191406 C 36.03125 30.597656 35.898438 31.058594 35.90625 31.472656 C 35.914062 31.804688 36.007812 32.113281 36.230469 32.363281 C 36.542969 32.71875 36.984375 32.800781 37.457031 32.695312 C 38.039062 32.574219 38.667969 32.15625 39.039062 31.804688 C 40.339844 30.570312 40.820312 28.917969 41.128906 27.320312 C 41.167969 27.128906 41.222656 26.554688 41.191406 26.148438 C 41.175781 25.910156 41.113281 25.71875 41.042969 25.621094 Z M 40.546875 26.285156 C 40.546875 26.308594 40.546875 26.328125 40.546875 26.351562 C 40.554688 26.675781 40.515625 27.054688 40.488281 27.199219 C 40.203125 28.671875 39.785156 30.199219 38.585938 31.335938 C 38.289062 31.617188 37.785156 31.964844 37.320312 32.0625 C 37.089844 32.113281 36.871094 32.105469 36.722656 31.9375 C 36.570312 31.761719 36.542969 31.535156 36.566406 31.300781 C 36.589844 30.996094 36.691406 30.675781 36.785156 30.386719 C 37.164062 29.21875 37.839844 28.140625 39.027344 27.179688 C 39.453125 26.835938 40.03125 26.5625 40.507812 26.304688 Z M 40.546875 26.285156 " fill-opacity="1" fill-rule="evenodd"/><path fill="#000000" d="M 36.90625 27.085938 C 36.914062 27.070312 36.921875 27.050781 36.929688 27.035156 C 36.957031 26.972656 36.992188 26.847656 36.894531 26.710938 C 36.839844 26.628906 36.507812 26.371094 36.476562 26.347656 C 36.027344 25.992188 35.519531 25.550781 35.011719 25.261719 C 33.570312 24.429688 32.246094 24.101562 30.972656 24.0625 C 30.566406 24.050781 30.109375 24.050781 29.75 24.160156 C 29.441406 24.253906 29.199219 24.425781 29.0625 24.691406 C 28.878906 25.054688 28.976562 25.464844 29.273438 25.851562 C 29.617188 26.300781 30.230469 26.722656 30.679688 26.945312 C 32.285156 27.730469 33.910156 27.734375 35.417969 27.609375 C 35.601562 27.589844 36.125 27.5 36.464844 27.375 C 36.6875 27.292969 36.84375 27.179688 36.90625 27.085938 Z M 36.039062 26.828125 C 35.777344 26.902344 35.484375 26.949219 35.363281 26.960938 C 33.964844 27.078125 32.457031 27.09375 30.972656 26.363281 C 30.59375 26.179688 30.078125 25.835938 29.792969 25.460938 C 29.667969 25.296875 29.566406 25.136719 29.644531 24.984375 C 29.722656 24.835938 29.890625 24.78125 30.078125 24.746094 C 30.351562 24.695312 30.667969 24.703125 30.953125 24.710938 C 32.128906 24.746094 33.355469 25.054688 34.683594 25.820312 C 35.152344 26.089844 35.621094 26.496094 36.039062 26.828125 Z M 36.039062 26.828125 " fill-opacity="1" fill-rule="evenodd"/><path fill="#000000" d="M 33.25 28.558594 C 33.238281 28.542969 33.226562 28.53125 33.21875 28.519531 C 33.160156 28.457031 33.050781 28.382812 32.878906 28.429688 C 32.847656 28.4375 32.800781 28.457031 32.742188 28.492188 C 32.644531 28.550781 32.476562 28.675781 32.460938 28.691406 C 32.0625 28.96875 31.585938 29.273438 31.230469 29.628906 C 30.222656 30.636719 29.652344 31.722656 29.339844 32.871094 C 29.238281 33.234375 29.136719 33.644531 29.148438 34.007812 C 29.15625 34.308594 29.234375 34.578125 29.417969 34.789062 C 29.691406 35.109375 30.074219 35.160156 30.480469 35.023438 C 30.941406 34.871094 31.4375 34.460938 31.730469 34.121094 C 32.734375 32.953125 33.105469 31.476562 33.335938 30.054688 C 33.363281 29.886719 33.402344 29.382812 33.378906 29.027344 C 33.363281 28.8125 33.308594 28.640625 33.25 28.558594 Z M 32.734375 29.292969 C 32.734375 29.554688 32.710938 29.839844 32.691406 29.953125 C 32.476562 31.257812 32.160156 32.625 31.234375 33.699219 C 31.007812 33.960938 30.628906 34.292969 30.273438 34.410156 C 30.136719 34.457031 30.003906 34.476562 29.914062 34.371094 C 29.800781 34.238281 29.789062 34.046875 29.804688 33.851562 C 29.820312 33.585938 29.898438 33.296875 29.96875 33.039062 C 30.257812 31.992188 30.777344 31.003906 31.695312 30.085938 C 31.992188 29.785156 32.386719 29.53125 32.734375 29.292969 Z M 32.734375 29.292969 " fill-opacity="1" fill-rule="evenodd"/><path fill="#000000" d="M 24.734375 20.339844 C 24.714844 20.335938 24.695312 20.332031 24.675781 20.328125 C 24.601562 20.320312 24.457031 20.324219 24.355469 20.480469 C 24.308594 20.550781 24.207031 20.898438 24.195312 20.933594 C 24.0625 21.390625 23.882812 21.921875 23.8125 22.410156 C 23.609375 23.804688 23.742188 24.980469 24.082031 26.042969 C 24.1875 26.378906 24.320312 26.757812 24.503906 27.023438 C 24.667969 27.265625 24.875 27.425781 25.125 27.476562 C 25.410156 27.53125 25.667969 27.421875 25.875 27.179688 C 26.199219 26.804688 26.390625 26.035156 26.433594 25.523438 C 26.558594 24.003906 26.097656 22.664062 25.570312 21.453125 C 25.503906 21.304688 25.289062 20.894531 25.097656 20.644531 C 24.964844 20.472656 24.824219 20.371094 24.734375 20.339844 Z M 24.753906 21.34375 C 24.851562 21.496094 24.941406 21.644531 24.96875 21.707031 C 25.457031 22.828125 25.898438 24.066406 25.78125 25.46875 C 25.753906 25.816406 25.652344 26.320312 25.460938 26.644531 C 25.421875 26.707031 25.382812 26.761719 25.335938 26.804688 C 25.308594 26.824219 25.28125 26.84375 25.25 26.839844 C 25.128906 26.816406 25.054688 26.691406 24.980469 26.558594 C 24.863281 26.347656 24.777344 26.085938 24.703125 25.84375 C 24.390625 24.867188 24.269531 23.789062 24.457031 22.503906 C 24.511719 22.121094 24.640625 21.71875 24.753906 21.34375 Z M 24.753906 21.34375 " fill-opacity="1" fill-rule="evenodd"/><path fill="#000000" d="M 24.984375 30.589844 C 24.972656 30.574219 24.957031 30.558594 24.941406 30.542969 C 24.898438 30.5 24.800781 30.425781 24.636719 30.457031 C 24.554688 30.472656 24.230469 30.628906 24.199219 30.644531 C 23.75 30.855469 23.214844 31.085938 22.796875 31.351562 C 21.597656 32.125 20.828125 32.960938 20.304688 33.84375 C 20.132812 34.136719 19.953125 34.464844 19.898438 34.753906 C 19.84375 35.03125 19.894531 35.28125 20.066406 35.480469 C 20.242188 35.675781 20.507812 35.761719 20.828125 35.734375 C 21.351562 35.691406 22.058594 35.320312 22.46875 35.023438 C 23.703125 34.125 24.335938 32.980469 24.820312 31.882812 C 24.882812 31.746094 25.019531 31.34375 25.054688 31.058594 C 25.082031 30.84375 25.039062 30.675781 24.984375 30.589844 Z M 24.335938 31.296875 C 24.296875 31.433594 24.25 31.558594 24.222656 31.621094 C 23.777344 32.625 23.210938 33.679688 22.082031 34.5 C 21.796875 34.710938 21.332031 34.96875 20.9375 35.0625 C 20.851562 35.082031 20.769531 35.09375 20.695312 35.09375 C 20.640625 35.089844 20.589844 35.085938 20.558594 35.050781 C 20.496094 34.980469 20.53125 34.886719 20.566406 34.78125 C 20.628906 34.582031 20.753906 34.367188 20.871094 34.171875 C 21.347656 33.363281 22.054688 32.601562 23.152344 31.898438 C 23.503906 31.671875 23.945312 31.476562 24.335938 31.296875 Z M 24.335938 31.296875 " fill-opacity="1" fill-rule="evenodd"/><path fill="#000000" d="M 21.597656 31.046875 C 21.613281 31.035156 21.628906 31.019531 21.640625 31 C 21.679688 30.949219 21.742188 30.835938 21.675781 30.675781 C 21.640625 30.59375 21.402344 30.292969 21.378906 30.261719 C 21.058594 29.847656 20.699219 29.347656 20.320312 28.96875 C 19.234375 27.894531 18.164062 27.277344 17.085938 26.914062 C 16.738281 26.796875 16.34375 26.679688 16.019531 26.679688 C 15.71875 26.679688 15.464844 26.769531 15.289062 26.980469 C 15.109375 27.195312 15.070312 27.480469 15.160156 27.804688 C 15.3125 28.332031 15.863281 28.980469 16.273438 29.339844 C 17.503906 30.421875 18.886719 30.84375 20.191406 31.125 C 20.351562 31.160156 20.8125 31.21875 21.128906 31.203125 C 21.355469 31.191406 21.523438 31.117188 21.597656 31.046875 Z M 20.777344 30.546875 C 20.589844 30.535156 20.410156 30.511719 20.328125 30.492188 C 19.125 30.230469 17.84375 29.851562 16.707031 28.855469 C 16.417969 28.601562 16.035156 28.175781 15.851562 27.789062 C 15.8125 27.703125 15.78125 27.621094 15.769531 27.542969 C 15.761719 27.488281 15.757812 27.433594 15.789062 27.394531 C 15.867188 27.304688 15.996094 27.320312 16.132812 27.335938 C 16.371094 27.363281 16.636719 27.449219 16.878906 27.527344 C 17.871094 27.863281 18.855469 28.4375 19.859375 29.429688 C 20.1875 29.753906 20.496094 30.175781 20.777344 30.546875 Z M 20.777344 30.546875 " fill-opacity="1" fill-rule="evenodd"/><path fill="#000000" d="M 20.742188 12.582031 C 20.722656 12.589844 20.707031 12.59375 20.6875 12.605469 C 20.585938 12.652344 20.453125 12.789062 20.34375 12.996094 C 20.179688 13.316406 20.019531 13.8125 19.980469 13.988281 C 19.660156 15.445312 19.453125 17.03125 20.023438 18.691406 C 20.183594 19.160156 20.519531 19.8125 20.917969 20.203125 C 21.261719 20.542969 21.660156 20.691406 22.042969 20.554688 C 22.324219 20.457031 22.523438 20.242188 22.65625 19.953125 C 22.808594 19.617188 22.867188 19.171875 22.910156 18.769531 C 23.039062 17.523438 22.882812 16.191406 22.25 14.679688 C 22.027344 14.148438 21.660156 13.601562 21.367188 13.117188 C 21.347656 13.082031 21.132812 12.726562 21.0625 12.664062 C 20.9375 12.550781 20.808594 12.566406 20.742188 12.582031 Z M 20.851562 13.523438 C 21.121094 13.960938 21.449219 14.453125 21.648438 14.929688 C 22.230469 16.324219 22.378906 17.554688 22.261719 18.703125 C 22.230469 18.984375 22.199219 19.292969 22.109375 19.554688 C 22.050781 19.730469 21.980469 19.890625 21.824219 19.945312 C 21.664062 20 21.519531 19.886719 21.378906 19.746094 C 21.046875 19.417969 20.777344 18.871094 20.644531 18.484375 C 20.113281 16.945312 20.324219 15.476562 20.617188 14.128906 C 20.640625 14.03125 20.753906 13.753906 20.851562 13.523438 Z M 20.851562 13.523438 " fill-opacity="1" fill-rule="evenodd"/><path fill="#000000" d="M 23.265625 14.648438 C 23.253906 14.664062 23.246094 14.675781 23.238281 14.691406 C 23.199219 14.757812 23.152344 14.878906 23.234375 15.027344 C 23.285156 15.117188 23.617188 15.417969 23.652344 15.449219 C 24.101562 15.859375 24.605469 16.363281 25.125 16.707031 C 26.617188 17.675781 28.054688 18.085938 29.488281 18.171875 C 29.9375 18.195312 30.445312 18.214844 30.863281 18.105469 C 31.203125 18.019531 31.484375 17.851562 31.667969 17.582031 C 31.929688 17.195312 31.875 16.746094 31.609375 16.316406 C 31.292969 15.804688 30.667969 15.316406 30.191406 15.054688 C 28.515625 14.125 26.683594 14.066406 24.960938 14.15625 C 24.757812 14.167969 24.160156 14.25 23.761719 14.378906 C 23.519531 14.449219 23.34375 14.558594 23.265625 14.648438 Z M 24.082031 14.960938 L 24.109375 14.953125 C 24.441406 14.867188 24.84375 14.8125 25 14.804688 C 26.601562 14.71875 28.308594 14.753906 29.871094 15.621094 C 30.265625 15.835938 30.789062 16.234375 31.050781 16.65625 C 31.171875 16.847656 31.242188 17.046875 31.125 17.21875 C 31 17.40625 30.777344 17.476562 30.53125 17.511719 C 30.210938 17.5625 29.851562 17.542969 29.527344 17.523438 C 28.199219 17.445312 26.867188 17.0625 25.484375 16.164062 C 24.992188 15.839844 24.519531 15.359375 24.09375 14.972656 Z M 24.082031 14.960938 " fill-opacity="1" fill-rule="evenodd"/><path fill="#000000" d="M 20.6875 23.148438 C 20.679688 23.136719 20.675781 23.121094 20.671875 23.105469 C 20.632812 23.007812 20.515625 22.867188 20.34375 22.738281 C 20.0625 22.519531 19.617188 22.277344 19.460938 22.207031 C 18.144531 21.625 16.707031 21.121094 15.1875 21.335938 C 14.75 21.398438 14.132812 21.589844 13.757812 21.898438 C 13.429688 22.167969 13.265625 22.515625 13.386719 22.917969 C 13.46875 23.1875 13.648438 23.402344 13.894531 23.574219 C 14.195312 23.78125 14.59375 23.921875 14.953125 24.039062 C 16.085938 24.402344 17.304688 24.515625 18.691406 24.214844 C 19.179688 24.109375 19.6875 23.871094 20.136719 23.691406 C 20.15625 23.679688 20.351562 23.609375 20.457031 23.558594 C 20.515625 23.527344 20.558594 23.496094 20.582031 23.472656 C 20.707031 23.359375 20.703125 23.230469 20.6875 23.148438 Z M 19.78125 23.132812 C 19.394531 23.296875 18.964844 23.492188 18.550781 23.582031 C 17.289062 23.855469 16.183594 23.753906 15.15625 23.421875 C 14.902344 23.339844 14.621094 23.246094 14.390625 23.117188 C 14.214844 23.019531 14.066406 22.90625 14.015625 22.734375 C 13.972656 22.59375 14.058594 22.488281 14.171875 22.398438 C 14.460938 22.164062 14.941406 22.023438 15.28125 21.976562 C 16.675781 21.78125 17.988281 22.261719 19.195312 22.800781 C 19.300781 22.847656 19.558594 22.988281 19.78125 23.132812 Z M 19.78125 23.132812 " fill-opacity="1" fill-rule="evenodd"/><path fill="#000000" d="M 15.5625 31.214844 C 15.566406 31.195312 15.566406 31.171875 15.566406 31.152344 C 15.566406 31.082031 15.539062 30.941406 15.367188 30.863281 C 15.292969 30.828125 14.921875 30.765625 14.886719 30.757812 C 14.386719 30.671875 13.804688 30.546875 13.285156 30.527344 C 11.796875 30.460938 10.59375 30.695312 9.542969 31.109375 C 9.207031 31.246094 8.832031 31.402344 8.582031 31.601562 C 8.34375 31.789062 8.207031 32.015625 8.199219 32.265625 C 8.1875 32.542969 8.335938 32.78125 8.621094 32.953125 C 9.058594 33.222656 9.882812 33.332031 10.417969 33.328125 C 12.023438 33.308594 13.34375 32.746094 14.523438 32.136719 C 14.667969 32.0625 15.0625 31.816406 15.292969 31.613281 C 15.460938 31.464844 15.546875 31.3125 15.5625 31.214844 Z M 14.53125 31.351562 C 14.402344 31.449219 14.28125 31.53125 14.222656 31.5625 C 13.128906 32.128906 11.902344 32.660156 10.410156 32.679688 C 10.035156 32.683594 9.484375 32.628906 9.105469 32.472656 C 9.027344 32.441406 8.960938 32.40625 8.90625 32.363281 C 8.878906 32.339844 8.847656 32.320312 8.851562 32.289062 C 8.851562 32.246094 8.882812 32.210938 8.917969 32.171875 C 8.964844 32.125 9.019531 32.082031 9.085938 32.042969 C 9.289062 31.910156 9.546875 31.808594 9.785156 31.714844 C 10.761719 31.328125 11.875 31.113281 13.253906 31.171875 C 13.667969 31.191406 14.117188 31.277344 14.53125 31.351562 Z M 14.53125 31.351562 " fill-opacity="1" fill-rule="evenodd"/><path fill="#000000" d="M 9.390625 26.671875 C 9.390625 26.65625 9.390625 26.640625 9.386719 26.621094 C 9.367188 26.519531 9.277344 26.34375 9.132812 26.15625 C 8.878906 25.824219 8.457031 25.394531 8.300781 25.257812 C 7 24.101562 5.546875 22.972656 3.832031 22.5 C 3.335938 22.363281 2.617188 22.28125 2.136719 22.414062 C 1.679688 22.535156 1.402344 22.820312 1.441406 23.304688 C 1.464844 23.585938 1.605469 23.867188 1.824219 24.132812 C 2.097656 24.460938 2.496094 24.769531 2.855469 25.039062 C 4.011719 25.898438 5.316406 26.546875 6.902344 26.875 C 7.464844 26.988281 8.082031 26.984375 8.617188 27.003906 C 8.644531 27.007812 8.871094 27.023438 9 27.019531 C 9.070312 27.015625 9.128906 27.003906 9.160156 26.996094 C 9.355469 26.925781 9.394531 26.777344 9.390625 26.671875 Z M 8.453125 26.351562 C 7.996094 26.339844 7.496094 26.335938 7.03125 26.238281 C 5.546875 25.933594 4.328125 25.324219 3.25 24.519531 C 2.929688 24.28125 2.570312 24.011719 2.328125 23.71875 C 2.203125 23.566406 2.105469 23.414062 2.09375 23.25 C 2.082031 23.121094 2.1875 23.070312 2.308594 23.039062 C 2.691406 22.933594 3.265625 23.015625 3.660156 23.125 C 5.273438 23.570312 6.636719 24.648438 7.867188 25.738281 C 7.976562 25.835938 8.234375 26.097656 8.453125 26.351562 Z M 8.453125 26.351562 " fill-opacity="1" fill-rule="evenodd"/><path fill="#000000" d="M 10.488281 28.347656 C 10.503906 28.351562 10.511719 28.359375 10.523438 28.363281 C 10.601562 28.394531 10.707031 28.410156 10.832031 28.339844 C 10.871094 28.316406 10.9375 28.261719 11 28.183594 C 11.078125 28.085938 11.171875 27.949219 11.183594 27.933594 C 11.496094 27.515625 11.886719 27.050781 12.105469 26.566406 C 12.714844 25.203125 12.753906 23.898438 12.445312 22.609375 C 12.277344 21.902344 12.007812 21.070312 11.285156 20.734375 C 10.824219 20.519531 10.394531 20.605469 10.03125 20.84375 C 9.5625 21.152344 9.210938 21.746094 9.058594 22.191406 C 8.546875 23.71875 8.984375 25.359375 9.554688 26.894531 C 9.621094 27.078125 9.871094 27.601562 10.109375 27.949219 C 10.242188 28.144531 10.382812 28.285156 10.488281 28.347656 Z M 10.640625 27.574219 C 10.613281 27.535156 10.589844 27.496094 10.5625 27.453125 C 10.382812 27.160156 10.214844 26.804688 10.164062 26.671875 C 9.648438 25.273438 9.210938 23.785156 9.679688 22.398438 C 9.773438 22.117188 9.96875 21.753906 10.238281 21.503906 C 10.449219 21.308594 10.710938 21.183594 11.007812 21.320312 C 11.253906 21.433594 11.410156 21.640625 11.523438 21.875 C 11.660156 22.15625 11.742188 22.472656 11.808594 22.761719 C 12.085938 23.914062 12.054688 25.082031 11.507812 26.304688 C 11.308594 26.746094 10.945312 27.167969 10.660156 27.546875 Z M 10.640625 27.574219 " fill-opacity="1" fill-rule="evenodd"/><path fill="#000000" d="M 6.828125 19.96875 C 6.847656 19.96875 6.863281 19.964844 6.878906 19.964844 C 6.957031 19.953125 7.078125 19.910156 7.140625 19.753906 C 7.175781 19.664062 7.191406 19.25 7.195312 19.210938 C 7.21875 18.660156 7.277344 18.019531 7.203125 17.460938 C 7 15.867188 6.421875 14.632812 5.613281 13.589844 C 5.359375 13.261719 5.0625 12.902344 4.730469 12.671875 C 4.460938 12.488281 4.167969 12.390625 3.859375 12.417969 C 3.410156 12.460938 3.117188 12.769531 2.964844 13.210938 C 2.789062 13.726562 2.816406 14.453125 2.914062 14.9375 C 3.261719 16.632812 4.332031 17.9375 5.441406 19.074219 C 5.574219 19.214844 5.992188 19.578125 6.328125 19.78125 C 6.527344 19.90625 6.714844 19.96875 6.828125 19.96875 Z M 6.542969 19.148438 C 6.285156 18.96875 6.007812 18.726562 5.910156 18.625 C 4.882812 17.570312 3.878906 16.375 3.554688 14.808594 C 3.476562 14.417969 3.441406 13.835938 3.585938 13.417969 C 3.648438 13.238281 3.738281 13.082031 3.921875 13.0625 C 4.128906 13.042969 4.3125 13.15625 4.484375 13.300781 C 4.710938 13.496094 4.914062 13.753906 5.097656 13.988281 C 5.839844 14.945312 6.367188 16.082031 6.558594 17.542969 C 6.625 18.058594 6.566406 18.640625 6.542969 19.148438 Z M 6.542969 19.148438 " fill-opacity="1" fill-rule="evenodd"/><path fill="#000000" d="M 10.324219 13.480469 C 10.335938 13.492188 10.351562 13.503906 10.367188 13.511719 C 10.433594 13.550781 10.554688 13.601562 10.710938 13.519531 C 10.789062 13.472656 11.066406 13.175781 11.09375 13.148438 C 11.46875 12.753906 11.921875 12.3125 12.238281 11.851562 C 13.128906 10.542969 13.539062 9.28125 13.664062 8.019531 C 13.703125 7.621094 13.734375 7.171875 13.65625 6.804688 C 13.589844 6.496094 13.445312 6.238281 13.207031 6.066406 C 12.863281 5.824219 12.453125 5.871094 12.050781 6.113281 C 11.59375 6.394531 11.148438 6.945312 10.902344 7.367188 C 10.039062 8.835938 9.921875 10.445312 9.9375 11.957031 C 9.941406 12.140625 9.992188 12.667969 10.085938 13.023438 C 10.144531 13.242188 10.238281 13.410156 10.324219 13.480469 Z M 10.671875 12.648438 C 10.621094 12.375 10.59375 12.074219 10.589844 11.953125 C 10.574219 10.550781 10.664062 9.054688 11.464844 7.691406 C 11.664062 7.351562 12.023438 6.894531 12.394531 6.667969 C 12.546875 6.574219 12.699219 6.503906 12.828125 6.597656 C 12.972656 6.699219 13.015625 6.882812 13.039062 7.082031 C 13.070312 7.359375 13.039062 7.675781 13.011719 7.960938 C 12.898438 9.117188 12.519531 10.28125 11.695312 11.488281 C 11.417969 11.898438 11.011719 12.289062 10.671875 12.648438 Z M 10.671875 12.648438 " fill-opacity="1" fill-rule="evenodd"/><path fill="#000000" d="M 17.328125 11.121094 C 17.328125 11.140625 17.332031 11.15625 17.335938 11.175781 C 17.351562 11.253906 17.402344 11.375 17.574219 11.425781 C 17.65625 11.453125 18.042969 11.4375 18.078125 11.433594 C 18.585938 11.410156 19.171875 11.414062 19.683594 11.308594 C 21.132812 11.011719 22.242188 10.421875 23.167969 9.644531 C 23.460938 9.398438 23.785156 9.113281 23.980469 8.8125 C 24.148438 8.554688 24.230469 8.285156 24.191406 8.011719 C 24.132812 7.605469 23.832031 7.359375 23.398438 7.253906 C 22.914062 7.140625 22.25 7.21875 21.808594 7.339844 C 20.265625 7.769531 19.109375 8.789062 18.105469 9.832031 C 17.984375 9.957031 17.664062 10.351562 17.484375 10.65625 C 17.375 10.84375 17.324219 11.019531 17.328125 11.121094 Z M 18.179688 10.78125 C 18.324219 10.570312 18.5 10.359375 18.574219 10.28125 C 19.503906 9.316406 20.5625 8.363281 21.984375 7.964844 C 22.335938 7.867188 22.863281 7.792969 23.246094 7.886719 C 23.390625 7.917969 23.523438 7.96875 23.542969 8.105469 C 23.566406 8.269531 23.472656 8.421875 23.351562 8.570312 C 23.183594 8.78125 22.957031 8.976562 22.746094 9.152344 C 21.898438 9.863281 20.878906 10.402344 19.550781 10.675781 C 19.113281 10.765625 18.621094 10.765625 18.179688 10.78125 Z M 18.179688 10.78125 " fill-opacity="1" fill-rule="evenodd"/><path fill="#000000" d="M 7.835938 15.804688 C 7.832031 15.820312 7.828125 15.835938 7.824219 15.851562 C 7.8125 15.929688 7.820312 16.058594 7.953125 16.164062 C 8.015625 16.214844 8.359375 16.335938 8.394531 16.347656 C 8.835938 16.5 9.339844 16.703125 9.8125 16.78125 C 11.164062 17.011719 12.3125 16.859375 13.363281 16.476562 C 13.699219 16.355469 14.070312 16.207031 14.34375 16 C 14.570312 15.824219 14.730469 15.609375 14.785156 15.347656 C 14.867188 14.960938 14.6875 14.636719 14.347656 14.394531 C 13.964844 14.121094 13.363281 13.964844 12.9375 13.921875 C 11.46875 13.78125 10.140625 14.304688 8.933594 14.898438 C 8.785156 14.96875 8.382812 15.214844 8.128906 15.429688 C 7.96875 15.566406 7.867188 15.707031 7.835938 15.804688 Z M 8.765625 15.789062 C 8.945312 15.660156 9.148438 15.515625 9.222656 15.480469 C 10.324219 14.9375 11.535156 14.441406 12.875 14.570312 C 13.203125 14.601562 13.671875 14.710938 13.964844 14.921875 C 14.078125 15 14.171875 15.085938 14.144531 15.214844 C 14.113281 15.363281 13.984375 15.46875 13.839844 15.558594 C 13.628906 15.6875 13.371094 15.785156 13.140625 15.867188 C 12.1875 16.214844 11.144531 16.351562 9.921875 16.144531 C 9.539062 16.078125 9.132812 15.921875 8.765625 15.789062 Z M 8.765625 15.789062 " fill-opacity="1" fill-rule="evenodd"/><g fill="#3e422f" fill-opacity="1"><g transform="translate(30.561328, 13.952998)"><g><path d="M 5.890625 -0.296875 L 7.125 -0.296875 L 5.96875 -3.03125 L 2.328125 -3.03125 L 1.234375 -0.25 L 3.328125 -0.25 L 3.328125 0 L -0.90625 0 L -0.90625 -0.28125 L 0.9375 -0.28125 L 3.9375 -7.828125 L 5.53125 -11.828125 L 10.671875 -0.296875 L 12.15625 -0.296875 L 12.15625 0 L 5.890625 0 Z M 2.4375 -3.328125 L 5.84375 -3.328125 L 4.09375 -7.453125 Z M 2.4375 -3.328125 "/></g></g></g><g fill="#3e422f" fill-opacity="1"><g transform="translate(41.9726, 13.952998)"><g><path d="M 5.578125 -0.578125 C 5.554688 -0.472656 5.503906 -0.375 5.421875 -0.28125 C 5.335938 -0.1875 5.234375 -0.0976562 5.109375 -0.015625 C 4.992188 0.0664062 4.867188 0.140625 4.734375 0.203125 C 4.597656 0.273438 4.46875 0.332031 4.34375 0.375 C 4.21875 0.414062 4.109375 0.441406 4.015625 0.453125 C 3.921875 0.472656 3.851562 0.476562 3.8125 0.46875 C 3.394531 0.46875 3.019531 0.414062 2.6875 0.3125 C 2.363281 0.207031 2.078125 0.0664062 1.828125 -0.109375 C 1.585938 -0.296875 1.382812 -0.507812 1.21875 -0.75 C 1.050781 -0.988281 0.914062 -1.238281 0.8125 -1.5 C 0.71875 -1.769531 0.644531 -2.039062 0.59375 -2.3125 C 0.550781 -2.59375 0.53125 -2.863281 0.53125 -3.125 C 0.53125 -3.300781 0.550781 -3.515625 0.59375 -3.765625 C 0.644531 -4.023438 0.722656 -4.296875 0.828125 -4.578125 C 0.929688 -4.859375 1.066406 -5.132812 1.234375 -5.40625 C 1.398438 -5.6875 1.601562 -5.9375 1.84375 -6.15625 C 2.082031 -6.375 2.359375 -6.550781 2.671875 -6.6875 C 2.984375 -6.832031 3.335938 -6.90625 3.734375 -6.90625 C 3.929688 -6.90625 4.117188 -6.875 4.296875 -6.8125 C 4.484375 -6.75 4.660156 -6.664062 4.828125 -6.5625 C 4.992188 -6.457031 5.148438 -6.332031 5.296875 -6.1875 C 5.441406 -6.039062 5.570312 -5.890625 5.6875 -5.734375 L 5.78125 -10.59375 L 4.03125 -10.59375 L 4.03125 -10.8125 L 8.15625 -10.8125 L 7.953125 -0.125 L 9.59375 -0.125 L 9.59375 0.15625 L 5.5625 0.15625 Z M 4.328125 0.015625 C 4.453125 0.015625 4.578125 -0.015625 4.703125 -0.078125 C 4.835938 -0.148438 4.960938 -0.253906 5.078125 -0.390625 C 5.203125 -0.523438 5.304688 -0.691406 5.390625 -0.890625 C 5.484375 -1.097656 5.550781 -1.332031 5.59375 -1.59375 L 5.6875 -5.125 C 5.601562 -5.320312 5.503906 -5.492188 5.390625 -5.640625 C 5.273438 -5.796875 5.160156 -5.925781 5.046875 -6.03125 C 4.929688 -6.144531 4.8125 -6.234375 4.6875 -6.296875 C 4.570312 -6.367188 4.457031 -6.425781 4.34375 -6.46875 C 4.21875 -6.46875 4.078125 -6.414062 3.921875 -6.3125 C 3.773438 -6.21875 3.640625 -6.035156 3.515625 -5.765625 C 3.390625 -5.503906 3.28125 -5.132812 3.1875 -4.65625 C 3.101562 -4.1875 3.0625 -3.578125 3.0625 -2.828125 C 3.0625 -2.285156 3.097656 -1.828125 3.171875 -1.453125 C 3.242188 -1.085938 3.335938 -0.796875 3.453125 -0.578125 C 3.578125 -0.367188 3.710938 -0.21875 3.859375 -0.125 C 4.015625 -0.03125 4.171875 0.015625 4.328125 0.015625 Z M 4.328125 0.015625 "/></g></g></g><g fill="#3e422f" fill-opacity="1"><g transform="translate(51.416134, 13.952998)"><g><path d="M 6.671875 0.3125 C 6.785156 0.300781 6.898438 0.242188 7.015625 0.140625 C 7.097656 0.046875 7.1875 -0.0976562 7.28125 -0.296875 C 7.382812 -0.503906 7.46875 -0.796875 7.53125 -1.171875 L 7.828125 -1.140625 C 7.753906 -0.691406 7.65625 -0.347656 7.53125 -0.109375 C 7.40625 0.117188 7.273438 0.289062 7.140625 0.40625 C 6.992188 0.53125 6.835938 0.597656 6.671875 0.609375 C 6.535156 0.609375 6.367188 0.585938 6.171875 0.546875 C 5.972656 0.515625 5.773438 0.453125 5.578125 0.359375 C 5.378906 0.265625 5.195312 0.140625 5.03125 -0.015625 C 4.863281 -0.171875 4.742188 -0.367188 4.671875 -0.609375 C 4.453125 -0.242188 4.15625 0.0507812 3.78125 0.28125 C 3.414062 0.519531 3 0.640625 2.53125 0.640625 C 2.289062 0.640625 2.046875 0.613281 1.796875 0.5625 C 1.554688 0.507812 1.335938 0.421875 1.140625 0.296875 C 0.941406 0.171875 0.773438 0.0078125 0.640625 -0.1875 C 0.515625 -0.382812 0.453125 -0.632812 0.453125 -0.9375 C 0.453125 -1.320312 0.523438 -1.648438 0.671875 -1.921875 C 0.828125 -2.203125 1.023438 -2.429688 1.265625 -2.609375 C 1.515625 -2.796875 1.796875 -2.9375 2.109375 -3.03125 C 2.429688 -3.125 2.765625 -3.171875 3.109375 -3.171875 C 3.335938 -3.171875 3.5625 -3.144531 3.78125 -3.09375 C 4 -3.039062 4.21875 -2.945312 4.4375 -2.8125 C 4.445312 -3.082031 4.46875 -3.351562 4.5 -3.625 C 4.539062 -3.90625 4.578125 -4.160156 4.609375 -4.390625 C 4.617188 -4.535156 4.628906 -4.648438 4.640625 -4.734375 C 4.648438 -4.816406 4.65625 -4.882812 4.65625 -4.9375 C 4.664062 -5 4.671875 -5.039062 4.671875 -5.0625 C 4.671875 -5.09375 4.671875 -5.117188 4.671875 -5.140625 C 4.671875 -5.628906 4.582031 -6.015625 4.40625 -6.296875 C 4.226562 -6.585938 3.992188 -6.734375 3.703125 -6.734375 C 3.554688 -6.722656 3.410156 -6.695312 3.265625 -6.65625 C 3.128906 -6.625 3 -6.570312 2.875 -6.5 C 2.757812 -6.4375 2.660156 -6.351562 2.578125 -6.25 C 2.503906 -6.15625 2.46875 -6.039062 2.46875 -5.90625 C 2.46875 -5.757812 2.515625 -5.644531 2.609375 -5.5625 C 2.703125 -5.476562 2.800781 -5.394531 2.90625 -5.3125 C 3.019531 -5.226562 3.125 -5.132812 3.21875 -5.03125 C 3.3125 -4.925781 3.359375 -4.78125 3.359375 -4.59375 C 3.359375 -4.394531 3.328125 -4.226562 3.265625 -4.09375 C 3.203125 -3.957031 3.117188 -3.847656 3.015625 -3.765625 C 2.910156 -3.691406 2.789062 -3.632812 2.65625 -3.59375 C 2.53125 -3.5625 2.40625 -3.546875 2.28125 -3.546875 C 2.144531 -3.546875 2.007812 -3.566406 1.875 -3.609375 C 1.75 -3.660156 1.632812 -3.734375 1.53125 -3.828125 C 1.425781 -3.921875 1.335938 -4.046875 1.265625 -4.203125 C 1.203125 -4.359375 1.171875 -4.550781 1.171875 -4.78125 C 1.171875 -5.070312 1.242188 -5.351562 1.390625 -5.625 C 1.535156 -5.894531 1.722656 -6.128906 1.953125 -6.328125 C 2.191406 -6.535156 2.460938 -6.703125 2.765625 -6.828125 C 3.066406 -6.953125 3.375 -7.019531 3.6875 -7.03125 C 3.976562 -7.03125 4.289062 -6.96875 4.625 -6.84375 C 4.96875 -6.726562 5.289062 -6.53125 5.59375 -6.25 C 5.894531 -5.96875 6.144531 -5.585938 6.34375 -5.109375 C 6.539062 -4.628906 6.640625 -4.03125 6.640625 -3.3125 C 6.640625 -2.96875 6.625 -2.640625 6.59375 -2.328125 C 6.570312 -2.023438 6.546875 -1.742188 6.515625 -1.484375 C 6.492188 -1.222656 6.46875 -0.984375 6.4375 -0.765625 C 6.414062 -0.554688 6.40625 -0.375 6.40625 -0.21875 C 6.40625 -0.0625 6.421875 0.0625 6.453125 0.15625 C 6.484375 0.25 6.546875 0.300781 6.640625 0.3125 Z M 4.546875 -1.046875 C 4.503906 -1.222656 4.472656 -1.410156 4.453125 -1.609375 C 4.441406 -1.816406 4.4375 -2.019531 4.4375 -2.21875 L 4.4375 -2.4375 C 4.289062 -2.5625 4.128906 -2.65625 3.953125 -2.71875 C 3.773438 -2.78125 3.617188 -2.8125 3.484375 -2.8125 C 3.140625 -2.8125 2.878906 -2.671875 2.703125 -2.390625 C 2.523438 -2.109375 2.4375 -1.738281 2.4375 -1.28125 C 2.4375 -1.082031 2.457031 -0.898438 2.5 -0.734375 C 2.539062 -0.566406 2.597656 -0.421875 2.671875 -0.296875 C 2.742188 -0.179688 2.832031 -0.0859375 2.9375 -0.015625 C 3.039062 0.046875 3.160156 0.078125 3.296875 0.078125 C 3.421875 0.078125 3.539062 0.046875 3.65625 -0.015625 C 3.78125 -0.078125 3.894531 -0.160156 4 -0.265625 C 4.113281 -0.367188 4.210938 -0.488281 4.296875 -0.625 C 4.390625 -0.757812 4.472656 -0.898438 4.546875 -1.046875 Z M 4.546875 -1.046875 "/></g></g></g><g fill="#3e422f" fill-opacity="1"><g transform="translate(59.279026, 13.952998)"><g><path d="M 14.640625 0.15625 L 10.328125 0.0625 L 10.328125 -0.234375 L 10.96875 -0.21875 C 11.007812 -1.332031 11.035156 -2.257812 11.046875 -3 C 11.066406 -3.738281 11.082031 -4.328125 11.09375 -4.765625 C 11.101562 -5.265625 11.109375 -5.648438 11.109375 -5.921875 C 11.117188 -6.097656 11.101562 -6.234375 11.0625 -6.328125 C 11.03125 -6.429688 10.984375 -6.507812 10.921875 -6.5625 C 10.859375 -6.613281 10.785156 -6.644531 10.703125 -6.65625 C 10.628906 -6.675781 10.554688 -6.691406 10.484375 -6.703125 C 10.378906 -6.671875 10.242188 -6.601562 10.078125 -6.5 C 9.921875 -6.40625 9.753906 -6.242188 9.578125 -6.015625 C 9.410156 -5.785156 9.253906 -5.484375 9.109375 -5.109375 C 8.960938 -4.734375 8.847656 -4.253906 8.765625 -3.671875 C 8.773438 -3.628906 8.78125 -3.582031 8.78125 -3.53125 C 8.78125 -3.488281 8.78125 -3.421875 8.78125 -3.328125 C 8.789062 -3.242188 8.796875 -3.128906 8.796875 -2.984375 C 8.796875 -2.835938 8.796875 -2.640625 8.796875 -2.390625 C 8.804688 -2.148438 8.8125 -1.851562 8.8125 -1.5 C 8.8125 -1.144531 8.8125 -0.71875 8.8125 -0.21875 L 9.640625 -0.203125 L 9.640625 0.09375 L 5.625 0 L 5.625 -0.296875 L 6.34375 -0.28125 C 6.363281 -1.238281 6.382812 -2.039062 6.40625 -2.6875 C 6.425781 -3.332031 6.441406 -3.847656 6.453125 -4.234375 C 6.472656 -4.691406 6.492188 -5.050781 6.515625 -5.3125 C 6.492188 -5.6875 6.453125 -5.988281 6.390625 -6.21875 C 6.328125 -6.445312 6.242188 -6.582031 6.140625 -6.625 C 6.066406 -6.613281 5.945312 -6.578125 5.78125 -6.515625 C 5.625 -6.453125 5.453125 -6.335938 5.265625 -6.171875 C 5.078125 -6.003906 4.890625 -5.773438 4.703125 -5.484375 C 4.515625 -5.191406 4.359375 -4.8125 4.234375 -4.34375 L 4.140625 -0.296875 L 5.015625 -0.296875 L 5.015625 0 L 0.328125 0 L 0.328125 -0.296875 L 1.640625 -0.296875 L 1.640625 -6.640625 L 0.03125 -6.640625 L 0.03125 -6.9375 L 4.3125 -6.9375 L 4.28125 -5.296875 C 4.40625 -5.585938 4.546875 -5.828125 4.703125 -6.015625 C 4.867188 -6.210938 5.035156 -6.375 5.203125 -6.5 C 5.367188 -6.625 5.535156 -6.71875 5.703125 -6.78125 C 5.867188 -6.84375 6.023438 -6.894531 6.171875 -6.9375 L 6.203125 -6.9375 C 6.578125 -6.957031 6.898438 -6.894531 7.171875 -6.75 C 7.441406 -6.613281 7.671875 -6.425781 7.859375 -6.1875 C 8.046875 -5.957031 8.203125 -5.691406 8.328125 -5.390625 C 8.453125 -5.097656 8.550781 -4.804688 8.625 -4.515625 C 8.695312 -4.816406 8.78125 -5.082031 8.875 -5.3125 C 8.976562 -5.550781 9.085938 -5.757812 9.203125 -5.9375 C 9.316406 -6.113281 9.429688 -6.265625 9.546875 -6.390625 C 9.660156 -6.515625 9.773438 -6.617188 9.890625 -6.703125 C 10.148438 -6.890625 10.421875 -7.003906 10.703125 -7.046875 C 11.046875 -7.066406 11.351562 -7.023438 11.625 -6.921875 C 11.90625 -6.816406 12.148438 -6.671875 12.359375 -6.484375 C 12.566406 -6.304688 12.742188 -6.09375 12.890625 -5.84375 C 13.046875 -5.601562 13.171875 -5.351562 13.265625 -5.09375 C 13.367188 -4.84375 13.441406 -4.59375 13.484375 -4.34375 C 13.535156 -4.09375 13.566406 -3.867188 13.578125 -3.671875 C 13.578125 -3.085938 13.578125 -2.503906 13.578125 -1.921875 C 13.585938 -1.347656 13.585938 -0.753906 13.578125 -0.140625 L 14.640625 -0.125 Z M 14.640625 0.15625 "/></g></g></g><g fill="#3e422f" fill-opacity="1"><g transform="translate(118.699001, 14.337196)"><g><path d="M 0.390625 -11.265625 L 10.09375 -11.28125 L 10.015625 -5.5625 L 9.71875 -5.5625 C 9.726562 -6.238281 9.6875 -6.832031 9.59375 -7.34375 C 9.507812 -7.863281 9.394531 -8.3125 9.25 -8.6875 C 9.101562 -9.070312 8.929688 -9.390625 8.734375 -9.640625 C 8.546875 -9.898438 8.347656 -10.113281 8.140625 -10.28125 C 7.941406 -10.457031 7.742188 -10.59375 7.546875 -10.6875 C 7.359375 -10.78125 7.1875 -10.847656 7.03125 -10.890625 C 6.875 -10.929688 6.75 -10.957031 6.65625 -10.96875 C 6.5625 -10.976562 6.515625 -10.984375 6.515625 -10.984375 C 6.367188 -10.984375 6.210938 -10.976562 6.046875 -10.96875 C 5.878906 -10.96875 5.71875 -10.96875 5.5625 -10.96875 C 5.5625 -10.90625 5.554688 -10.769531 5.546875 -10.5625 C 5.535156 -10.351562 5.519531 -10.039062 5.5 -9.625 C 5.488281 -9.207031 5.472656 -8.671875 5.453125 -8.015625 C 5.429688 -7.367188 5.410156 -6.570312 5.390625 -5.625 C 5.441406 -5.625 5.535156 -5.628906 5.671875 -5.640625 C 5.804688 -5.648438 5.957031 -5.679688 6.125 -5.734375 C 6.300781 -5.785156 6.484375 -5.863281 6.671875 -5.96875 C 6.859375 -6.082031 7.03125 -6.238281 7.1875 -6.4375 C 7.34375 -6.632812 7.46875 -6.890625 7.5625 -7.203125 C 7.664062 -7.515625 7.710938 -7.894531 7.703125 -8.34375 L 8 -8.34375 L 7.703125 -8.34375 L 8 -8.34375 L 7.921875 -2.234375 L 7.625 -2.234375 C 7.601562 -2.753906 7.535156 -3.234375 7.421875 -3.671875 C 7.367188 -3.847656 7.300781 -4.023438 7.21875 -4.203125 C 7.144531 -4.390625 7.050781 -4.554688 6.9375 -4.703125 C 6.820312 -4.859375 6.6875 -4.988281 6.53125 -5.09375 C 6.382812 -5.207031 6.207031 -5.28125 6 -5.3125 L 5.390625 -5.328125 L 5.296875 -0.28125 L 7.375 -0.28125 C 7.5 -0.289062 7.660156 -0.316406 7.859375 -0.359375 C 8.054688 -0.410156 8.269531 -0.492188 8.5 -0.609375 C 8.738281 -0.722656 8.976562 -0.875 9.21875 -1.0625 C 9.457031 -1.257812 9.675781 -1.507812 9.875 -1.8125 C 10.082031 -2.113281 10.25 -2.484375 10.375 -2.921875 C 10.507812 -3.359375 10.585938 -3.875 10.609375 -4.46875 L 10.90625 -4.46875 L 10.765625 0.015625 L 0.40625 0.015625 L 0.40625 -0.28125 L 2.296875 -0.28125 L 2.34375 -10.96875 L 0.390625 -10.96875 Z M 0.390625 -11.265625 "/></g></g></g><g fill="#3e422f" fill-opacity="1"><g transform="translate(130.406557, 14.337196)"><g><path d="M 7.828125 -6.84375 L 10.46875 -6.84375 L 10.46875 -6.546875 L 9.375 -6.546875 L 7.484375 0.40625 L 5.140625 -3.625 L 3.3125 0.390625 L 0.875 -6.546875 L -0.078125 -6.546875 L -0.078125 -6.84375 L 4.25 -6.84375 L 4.25 -6.546875 L 3.34375 -6.546875 L 4.515625 -2.984375 L 6.0625 -6.375 L 8.0625 -2.859375 L 9.0625 -6.546875 L 7.828125 -6.546875 Z M 7.828125 -6.84375 "/></g></g></g><g fill="#3e422f" fill-opacity="1"><g transform="translate(140.890583, 14.337196)"><g><path d="M 6.625 0.3125 C 6.738281 0.300781 6.847656 0.242188 6.953125 0.140625 C 7.046875 0.046875 7.140625 -0.0976562 7.234375 -0.296875 C 7.328125 -0.492188 7.40625 -0.78125 7.46875 -1.15625 L 7.765625 -1.125 C 7.691406 -0.6875 7.59375 -0.347656 7.46875 -0.109375 C 7.34375 0.117188 7.21875 0.289062 7.09375 0.40625 C 6.9375 0.53125 6.78125 0.597656 6.625 0.609375 C 6.488281 0.609375 6.320312 0.585938 6.125 0.546875 C 5.925781 0.515625 5.726562 0.453125 5.53125 0.359375 C 5.332031 0.265625 5.148438 0.140625 4.984375 -0.015625 C 4.816406 -0.171875 4.703125 -0.367188 4.640625 -0.609375 C 4.421875 -0.242188 4.125 0.0507812 3.75 0.28125 C 3.382812 0.519531 2.96875 0.640625 2.5 0.640625 C 2.269531 0.640625 2.035156 0.613281 1.796875 0.5625 C 1.554688 0.507812 1.332031 0.421875 1.125 0.296875 C 0.925781 0.171875 0.765625 0.0078125 0.640625 -0.1875 C 0.515625 -0.382812 0.453125 -0.632812 0.453125 -0.9375 C 0.453125 -1.3125 0.523438 -1.632812 0.671875 -1.90625 C 0.816406 -2.1875 1.007812 -2.414062 1.25 -2.59375 C 1.5 -2.78125 1.78125 -2.914062 2.09375 -3 C 2.414062 -3.09375 2.742188 -3.140625 3.078125 -3.140625 C 3.304688 -3.140625 3.53125 -3.113281 3.75 -3.0625 C 3.96875 -3.007812 4.1875 -2.914062 4.40625 -2.78125 C 4.414062 -3.050781 4.4375 -3.320312 4.46875 -3.59375 C 4.507812 -3.875 4.539062 -4.128906 4.5625 -4.359375 C 4.582031 -4.492188 4.597656 -4.601562 4.609375 -4.6875 C 4.617188 -4.78125 4.625 -4.851562 4.625 -4.90625 C 4.632812 -4.957031 4.640625 -4.992188 4.640625 -5.015625 C 4.640625 -5.046875 4.640625 -5.070312 4.640625 -5.09375 C 4.640625 -5.582031 4.550781 -5.96875 4.375 -6.25 C 4.195312 -6.539062 3.960938 -6.6875 3.671875 -6.6875 C 3.535156 -6.675781 3.394531 -6.648438 3.25 -6.609375 C 3.101562 -6.578125 2.972656 -6.523438 2.859375 -6.453125 C 2.742188 -6.390625 2.644531 -6.304688 2.5625 -6.203125 C 2.488281 -6.109375 2.453125 -5.992188 2.453125 -5.859375 C 2.453125 -5.722656 2.5 -5.613281 2.59375 -5.53125 C 2.6875 -5.445312 2.785156 -5.363281 2.890625 -5.28125 C 3.003906 -5.195312 3.101562 -5.097656 3.1875 -4.984375 C 3.28125 -4.878906 3.328125 -4.734375 3.328125 -4.546875 C 3.328125 -4.347656 3.296875 -4.179688 3.234375 -4.046875 C 3.171875 -3.921875 3.085938 -3.816406 2.984375 -3.734375 C 2.890625 -3.660156 2.773438 -3.601562 2.640625 -3.5625 C 2.515625 -3.53125 2.390625 -3.515625 2.265625 -3.515625 C 2.128906 -3.515625 1.992188 -3.535156 1.859375 -3.578125 C 1.734375 -3.628906 1.617188 -3.703125 1.515625 -3.796875 C 1.410156 -3.898438 1.320312 -4.023438 1.25 -4.171875 C 1.1875 -4.328125 1.15625 -4.515625 1.15625 -4.734375 C 1.15625 -5.023438 1.226562 -5.304688 1.375 -5.578125 C 1.519531 -5.847656 1.707031 -6.082031 1.9375 -6.28125 C 2.175781 -6.488281 2.441406 -6.65625 2.734375 -6.78125 C 3.035156 -6.90625 3.34375 -6.972656 3.65625 -6.984375 C 3.945312 -6.984375 4.257812 -6.921875 4.59375 -6.796875 C 4.9375 -6.679688 5.253906 -6.484375 5.546875 -6.203125 C 5.847656 -5.921875 6.097656 -5.539062 6.296875 -5.0625 C 6.492188 -4.59375 6.59375 -4 6.59375 -3.28125 C 6.59375 -2.945312 6.578125 -2.625 6.546875 -2.3125 C 6.523438 -2.007812 6.5 -1.726562 6.46875 -1.46875 C 6.445312 -1.21875 6.421875 -0.984375 6.390625 -0.765625 C 6.367188 -0.554688 6.359375 -0.375 6.359375 -0.21875 C 6.359375 -0.0625 6.375 0.0546875 6.40625 0.140625 C 6.4375 0.234375 6.5 0.289062 6.59375 0.3125 Z M 4.5 -1.03125 C 4.46875 -1.207031 4.441406 -1.394531 4.421875 -1.59375 C 4.410156 -1.800781 4.40625 -2.003906 4.40625 -2.203125 L 4.40625 -2.421875 C 4.257812 -2.546875 4.097656 -2.632812 3.921875 -2.6875 C 3.753906 -2.75 3.597656 -2.78125 3.453125 -2.78125 C 3.117188 -2.78125 2.863281 -2.640625 2.6875 -2.359375 C 2.507812 -2.085938 2.421875 -1.722656 2.421875 -1.265625 C 2.421875 -1.066406 2.441406 -0.882812 2.484375 -0.71875 C 2.523438 -0.5625 2.582031 -0.421875 2.65625 -0.296875 C 2.726562 -0.179688 2.816406 -0.0859375 2.921875 -0.015625 C 3.023438 0.046875 3.140625 0.078125 3.265625 0.078125 C 3.390625 0.078125 3.507812 0.046875 3.625 -0.015625 C 3.75 -0.078125 3.863281 -0.160156 3.96875 -0.265625 C 4.082031 -0.367188 4.179688 -0.488281 4.265625 -0.625 C 4.359375 -0.757812 4.4375 -0.894531 4.5 -1.03125 Z M 4.5 -1.03125 "/></g></g></g></svg>